<svg width="239" height="31" viewBox="0 0 239 31" fill="none" xmlns="http://www.w3.org/2000/svg">
<g clip-path="url(#clip0_266_241)">
<path d="M18.1189 14.0932H3.37565V8.243L0.779297 11.0412V22.7661H3.37565V16.3501H18.1189V22.7447L20.7183 19.9373V8.23383H18.1189V14.0932Z" fill="#3BA1E0"/>
<path d="M28.859 10.3991V22.7662H45.6757L47.6054 20.6805H31.4584V16.2462H43.1986V14.4786H31.4584V10.3257H47.6696V8.23392H30.8621L28.859 10.3991Z" fill="#3BA1E0"/>
<path d="M68.4435 17.7172L70.0613 17.6927C71.1836 17.6499 72.1194 17.4542 72.8717 17.0964C73.624 16.7447 74.1867 16.2248 74.5629 15.5429C74.9421 14.8609 75.1317 14.0077 75.1317 12.9832C75.1317 12.1361 75.0093 11.4052 74.7708 10.7997C74.5292 10.2003 74.1714 9.70794 73.6943 9.33179C73.2173 8.95564 72.6301 8.67735 71.939 8.49692C71.2417 8.32261 70.4497 8.23087 69.5506 8.23087H55.5963V22.7631H58.1957V10.4694H69.3793C70.4741 10.4694 71.2601 10.6743 71.7371 11.0872C72.2081 11.5 72.4466 12.1881 72.4466 13.1545C72.4466 14.1208 72.2081 14.7875 71.7371 15.2003C71.2601 15.6071 70.4772 15.815 69.3793 15.815H63.1254L65.5475 17.8181L69.8625 21.3961H69.8686L71.5139 22.7631H74.8381L69.7432 18.6071L68.4466 17.7141L68.4435 17.7172Z" fill="#3BA1E0"/>
<path d="M124.533 8.20935H121.358V22.7447H123.955V11.3011L133.31 22.7447H135.93L134.655 20.5917L124.533 8.20935Z" fill="#3BA1E0"/>
<path d="M136.145 18.7661L137.576 20.7386L145.307 11.3012V22.7295L147.903 19.9221V8.20944H144.772L136.145 18.7661Z" fill="#3BA1E0"/>
<path d="M164.61 8.20944L154.487 22.7447H157.64L159.909 19.4175H166.75L168.493 17.5429H161.185L166.316 10.0229L171.451 17.5429L172.735 19.4175L174.9 22.5888L176.698 20.6469L168.041 8.20944H164.61Z" fill="#3BA1E0"/>
<path d="M180.821 10.448H191.142L189.579 12.4021V22.7447H192.176V10.448H199.118L200.916 8.20944H180.821V10.448Z" fill="#3BA1E0"/>
<path d="M208.304 20.1423L210.387 22.7447H210.904V8.20944H208.304V20.1423Z" fill="#3BA1E0"/>
<path d="M237.384 19.7753C236.876 19.8701 236.329 19.9772 235.748 20.0781C234.711 20.2616 233.619 20.4175 232.479 20.5368C231.338 20.6561 230.191 20.7203 229.038 20.7203C227.543 20.7203 226.295 20.6102 225.286 20.3992C224.277 20.1851 223.476 19.864 222.879 19.4267C222.283 18.9955 221.858 18.4511 221.601 17.7998C221.344 17.1484 221.222 16.3777 221.222 15.497C221.222 14.6162 221.344 13.8334 221.601 13.185C221.858 12.5398 222.283 11.9985 222.879 11.5581C223.476 11.1177 224.277 10.7875 225.286 10.5764C226.295 10.3654 227.543 10.2553 229.038 10.2553C230.188 10.2553 231.335 10.3196 232.479 10.448C233.619 10.5765 234.711 10.7263 235.748 10.9067C236.274 10.9985 236.769 11.0902 237.237 11.182L238.815 9.20946C237.925 9.00151 236.962 8.80579 235.916 8.62842C234.797 8.43576 233.641 8.28591 232.454 8.1697C231.271 8.05655 230.103 7.99844 228.95 7.99844C227.148 7.99844 225.589 8.14829 224.271 8.45716C222.959 8.75992 221.885 9.2217 221.057 9.8425C220.228 10.4602 219.613 11.2401 219.213 12.185C218.815 13.13 218.616 14.234 218.616 15.497C218.616 16.76 218.812 17.864 219.213 18.7998C219.61 19.7386 220.225 20.5154 221.057 21.1331C221.885 21.7509 222.959 22.2157 224.271 22.5276C225.586 22.8426 227.145 22.9986 228.95 22.9986C230.099 22.9986 231.271 22.9344 232.454 22.8151C233.641 22.6958 234.797 22.5399 235.916 22.3564C237.026 22.1759 238.038 21.9711 238.971 21.7478L237.384 19.7753Z" fill="#3BA1E0"/>
<path d="M97.9331 0.414276C89.6149 0.414276 82.8473 7.18192 82.8473 15.5C82.8473 23.8182 89.6149 30.5858 97.9331 30.5858C106.251 30.5858 113.019 23.8182 113.019 15.5C113.019 7.18192 106.251 0.414276 97.9331 0.414276ZM97.9331 28.4207C90.8076 28.4207 85.0125 22.6255 85.0125 15.5C85.0125 8.3746 90.8076 2.57943 97.9331 2.57943C105.059 2.57943 110.854 8.3746 110.854 15.5C110.854 22.6255 105.059 28.4207 97.9331 28.4207Z" fill="#3BA1E0"/>
<path d="M97.9331 4.53662C91.8871 4.53662 86.9697 9.4541 86.9697 15.5C86.9697 21.546 91.8871 26.4634 97.9331 26.4634C103.979 26.4634 108.896 21.546 108.896 15.5C108.896 9.4541 103.979 4.53662 97.9331 4.53662ZM104.899 22.4665L104.003 21.5704C102.383 23.1912 100.227 24.0873 97.9361 24.0873C95.6456 24.0873 93.4896 23.1943 91.8688 21.5704L90.9728 22.4665C89.1868 20.6805 88.0828 18.2187 88.0828 15.5C88.0828 15.5 88.0828 15.5 88.0828 15.497H89.355C89.2572 10.8761 93.3275 6.8241 97.9392 6.91585V5.64367C100.71 5.64367 103.214 6.79352 105.007 8.63758L104.098 9.51832C105.661 11.13 106.523 13.2523 106.523 15.497H107.796C107.796 18.2156 106.692 20.6774 104.906 22.4634L104.899 22.4665Z" fill="#3BA1E0"/>
<path d="M97.9332 8.99234C94.3429 8.99234 91.4255 11.9129 91.4255 15.5C91.4255 19.0872 94.346 22.0078 97.9332 22.0078C101.52 22.0078 104.441 19.0872 104.441 15.5C104.441 11.9129 101.52 8.99234 97.9332 8.99234ZM97.9332 19.8457C95.5387 19.8457 93.5876 17.8976 93.5876 15.5C93.5876 13.1025 95.5356 11.1544 97.9332 11.1544C100.331 11.1544 102.279 13.1025 102.279 15.5C102.279 17.8976 100.331 19.8457 97.9332 19.8457Z" fill="#3BA1E0"/>
</g>
<defs>
<clipPath id="clip0_266_241">
<rect width="238.189" height="30.1715" fill="white" transform="translate(0.779297 0.414246)"/>
</clipPath>
</defs>
</svg>
