<svg width="111" height="29" viewBox="0 0 111 29" fill="none" xmlns="http://www.w3.org/2000/svg">
<rect width="110" height="28" transform="translate(0.779297 0.5)" fill="#3BA1E0"/>
<path d="M20.7875 18.608C20.2275 18.608 19.7355 18.5 19.3115 18.284C18.8875 18.06 18.5555 17.748 18.3155 17.348C18.0835 16.94 17.9675 16.472 17.9675 15.944V12.644C17.9675 12.124 18.0835 11.664 18.3155 11.264C18.5555 10.864 18.8875 10.556 19.3115 10.34C19.7355 10.116 20.2275 10.004 20.7875 10.004C21.3475 10.004 21.8395 10.112 22.2635 10.328C22.6875 10.544 23.0155 10.848 23.2475 11.24C23.4875 11.632 23.6075 12.084 23.6075 12.596C23.6075 12.636 23.5955 12.668 23.5715 12.692C23.5475 12.716 23.5195 12.728 23.4875 12.728L22.8755 12.764C22.7955 12.764 22.7555 12.728 22.7555 12.656V12.62C22.7555 12.052 22.5755 11.6 22.2155 11.264C21.8555 10.92 21.3795 10.748 20.7875 10.748C20.1955 10.748 19.7195 10.92 19.3595 11.264C18.9995 11.608 18.8195 12.06 18.8195 12.62V15.98C18.8195 16.54 18.9995 16.992 19.3595 17.336C19.7195 17.68 20.1955 17.852 20.7875 17.852C21.3795 17.852 21.8555 17.684 22.2155 17.348C22.5755 17.004 22.7555 16.548 22.7555 15.98V15.956C22.7555 15.884 22.7955 15.848 22.8755 15.848L23.4875 15.884C23.5675 15.884 23.6075 15.92 23.6075 15.992C23.6075 16.512 23.4875 16.972 23.2475 17.372C23.0155 17.764 22.6875 18.068 22.2635 18.284C21.8395 18.5 21.3475 18.608 20.7875 18.608ZM27.6569 18.596C27.0809 18.596 26.5849 18.448 26.1689 18.152C25.7529 17.856 25.4649 17.448 25.3049 16.928C25.1929 16.56 25.1369 16.068 25.1369 15.452C25.1369 14.836 25.1929 14.348 25.3049 13.988C25.4569 13.476 25.7409 13.072 26.1569 12.776C26.5729 12.48 27.0769 12.332 27.6689 12.332C28.2369 12.332 28.7249 12.48 29.1329 12.776C29.5489 13.072 29.8329 13.472 29.9849 13.976C30.0969 14.32 30.1529 14.812 30.1529 15.452C30.1529 16.1 30.0969 16.592 29.9849 16.928C29.8329 17.448 29.5489 17.856 29.1329 18.152C28.7249 18.448 28.2329 18.596 27.6569 18.596ZM27.6569 17.852C28.0409 17.852 28.3689 17.748 28.6409 17.54C28.9129 17.324 29.0969 17.036 29.1929 16.676C29.2649 16.388 29.3009 15.984 29.3009 15.464C29.3009 14.936 29.2689 14.532 29.2049 14.252C29.1089 13.892 28.9209 13.608 28.6409 13.4C28.3689 13.184 28.0369 13.076 27.6449 13.076C27.2529 13.076 26.9209 13.184 26.6489 13.4C26.3769 13.608 26.1929 13.892 26.0969 14.252C26.0329 14.532 26.0009 14.936 26.0009 15.464C26.0009 15.992 26.0329 16.396 26.0969 16.676C26.1849 17.036 26.3649 17.324 26.6369 17.54C26.9169 17.748 27.2569 17.852 27.6569 17.852ZM34.3999 12.344C35.0399 12.344 35.5479 12.532 35.9239 12.908C36.3079 13.284 36.4999 13.788 36.4999 14.42V18.38C36.4999 18.46 36.4599 18.5 36.3799 18.5H35.7679C35.6879 18.5 35.6479 18.46 35.6479 18.38V14.588C35.6479 14.148 35.5119 13.788 35.2399 13.508C34.9759 13.228 34.6319 13.088 34.2079 13.088C33.7679 13.088 33.4119 13.224 33.1399 13.496C32.8679 13.768 32.7319 14.124 32.7319 14.564V18.38C32.7319 18.46 32.6919 18.5 32.6119 18.5H31.9999C31.9199 18.5 31.8799 18.46 31.8799 18.38V12.548C31.8799 12.468 31.9199 12.428 31.9999 12.428H32.6119C32.6919 12.428 32.7319 12.468 32.7319 12.548V13.064C32.7319 13.08 32.7359 13.092 32.7439 13.1C32.7599 13.108 32.7719 13.104 32.7799 13.088C33.1319 12.592 33.6719 12.344 34.3999 12.344ZM41.0727 13.016C41.0727 13.096 41.0327 13.136 40.9527 13.136H39.5967C39.5647 13.136 39.5487 13.152 39.5487 13.184V16.724C39.5487 17.108 39.6327 17.38 39.8007 17.54C39.9767 17.692 40.2487 17.768 40.6167 17.768H40.9167C40.9967 17.768 41.0367 17.808 41.0367 17.888V18.38C41.0367 18.46 40.9967 18.5 40.9167 18.5C40.8207 18.508 40.6727 18.512 40.4727 18.512C39.8967 18.512 39.4607 18.404 39.1647 18.188C38.8687 17.972 38.7207 17.572 38.7207 16.988V13.184C38.7207 13.152 38.7047 13.136 38.6727 13.136H37.9407C37.8607 13.136 37.8207 13.096 37.8207 13.016V12.548C37.8207 12.468 37.8607 12.428 37.9407 12.428H38.6727C38.7047 12.428 38.7207 12.412 38.7207 12.38V10.988C38.7207 10.908 38.7607 10.868 38.8407 10.868H39.4287C39.5087 10.868 39.5487 10.908 39.5487 10.988V12.38C39.5487 12.412 39.5647 12.428 39.5967 12.428H40.9527C41.0327 12.428 41.0727 12.468 41.0727 12.548V13.016ZM44.8198 12.332C45.5398 12.332 46.0958 12.516 46.4878 12.884C46.8798 13.252 47.0758 13.74 47.0758 14.348V18.38C47.0758 18.46 47.0358 18.5 46.9558 18.5H46.3438C46.2638 18.5 46.2238 18.46 46.2238 18.38V17.888C46.2238 17.872 46.2158 17.86 46.1998 17.852C46.1918 17.844 46.1798 17.848 46.1638 17.864C45.9638 18.104 45.7038 18.288 45.3838 18.416C45.0638 18.536 44.7078 18.596 44.3158 18.596C43.7478 18.596 43.2718 18.452 42.8878 18.164C42.5038 17.876 42.3118 17.436 42.3118 16.844C42.3118 16.244 42.5278 15.772 42.9598 15.428C43.3998 15.076 44.0078 14.9 44.7838 14.9H46.1758C46.2078 14.9 46.2238 14.884 46.2238 14.852V14.396C46.2238 13.988 46.1078 13.668 45.8758 13.436C45.6518 13.196 45.2998 13.076 44.8198 13.076C44.4358 13.076 44.1238 13.152 43.8838 13.304C43.6438 13.448 43.4958 13.652 43.4398 13.916C43.4158 13.996 43.3678 14.032 43.2958 14.024L42.6478 13.94C42.5598 13.924 42.5238 13.892 42.5398 13.844C42.6038 13.396 42.8438 13.032 43.2598 12.752C43.6758 12.472 44.1958 12.332 44.8198 12.332ZM44.4838 17.864C44.9558 17.864 45.3638 17.748 45.7078 17.516C46.0518 17.276 46.2238 16.956 46.2238 16.556V15.62C46.2238 15.588 46.2078 15.572 46.1758 15.572H44.9158C44.3878 15.572 43.9638 15.68 43.6438 15.896C43.3238 16.112 43.1638 16.412 43.1638 16.796C43.1638 17.148 43.2838 17.416 43.5238 17.6C43.7718 17.776 44.0918 17.864 44.4838 17.864ZM51.1407 18.596C50.5647 18.596 50.0687 18.448 49.6527 18.152C49.2447 17.848 48.9647 17.44 48.8127 16.928C48.7087 16.576 48.6567 16.08 48.6567 15.44C48.6567 14.864 48.7087 14.376 48.8127 13.976C48.9567 13.48 49.2367 13.084 49.6527 12.788C50.0687 12.484 50.5647 12.332 51.1407 12.332C51.7247 12.332 52.2287 12.48 52.6527 12.776C53.0847 13.072 53.3647 13.44 53.4927 13.88C53.5327 14.024 53.5567 14.144 53.5647 14.24V14.264C53.5647 14.32 53.5287 14.356 53.4567 14.372L52.8567 14.456H52.8327C52.7767 14.456 52.7407 14.42 52.7247 14.348L52.6887 14.168C52.6167 13.864 52.4407 13.608 52.1607 13.4C51.8807 13.184 51.5407 13.076 51.1407 13.076C50.7407 13.076 50.4047 13.184 50.1327 13.4C49.8687 13.608 49.6967 13.888 49.6167 14.24C49.5447 14.544 49.5087 14.948 49.5087 15.452C49.5087 15.98 49.5447 16.388 49.6167 16.676C49.6967 17.036 49.8687 17.324 50.1327 17.54C50.4047 17.748 50.7407 17.852 51.1407 17.852C51.5327 17.852 51.8687 17.752 52.1487 17.552C52.4367 17.344 52.6167 17.08 52.6887 16.76V16.712L52.7007 16.664C52.7087 16.584 52.7567 16.552 52.8447 16.568L53.4327 16.664C53.5127 16.68 53.5487 16.724 53.5407 16.796L53.4927 17.036C53.3727 17.5 53.0967 17.876 52.6647 18.164C52.2327 18.452 51.7247 18.596 51.1407 18.596ZM57.807 13.016C57.807 13.096 57.767 13.136 57.687 13.136H56.331C56.299 13.136 56.283 13.152 56.283 13.184V16.724C56.283 17.108 56.367 17.38 56.535 17.54C56.711 17.692 56.983 17.768 57.351 17.768H57.651C57.731 17.768 57.771 17.808 57.771 17.888V18.38C57.771 18.46 57.731 18.5 57.651 18.5C57.555 18.508 57.407 18.512 57.207 18.512C56.631 18.512 56.195 18.404 55.899 18.188C55.603 17.972 55.455 17.572 55.455 16.988V13.184C55.455 13.152 55.439 13.136 55.407 13.136H54.675C54.595 13.136 54.555 13.096 54.555 13.016V12.548C54.555 12.468 54.595 12.428 54.675 12.428H55.407C55.439 12.428 55.455 12.412 55.455 12.38V10.988C55.455 10.908 55.495 10.868 55.575 10.868H56.163C56.243 10.868 56.283 10.908 56.283 10.988V12.38C56.283 12.412 56.299 12.428 56.331 12.428H57.687C57.767 12.428 57.807 12.468 57.807 12.548V13.016ZM64.7845 18.596C64.2245 18.596 63.7285 18.484 63.2965 18.26C62.8645 18.036 62.5285 17.724 62.2885 17.324C62.0485 16.916 61.9285 16.444 61.9285 15.908V10.22C61.9285 10.14 61.9685 10.1 62.0485 10.1H62.6605C62.7405 10.1 62.7805 10.14 62.7805 10.22V15.932C62.7805 16.5 62.9645 16.964 63.3325 17.324C63.7005 17.676 64.1845 17.852 64.7845 17.852C65.3845 17.852 65.8685 17.676 66.2365 17.324C66.6045 16.964 66.7885 16.5 66.7885 15.932V10.22C66.7885 10.14 66.8285 10.1 66.9085 10.1H67.5205C67.6005 10.1 67.6405 10.14 67.6405 10.22V15.908C67.6405 16.444 67.5205 16.916 67.2805 17.324C67.0485 17.724 66.7165 18.036 66.2845 18.26C65.8525 18.484 65.3525 18.596 64.7845 18.596ZM71.6297 18.56C71.1817 18.56 70.7817 18.488 70.4297 18.344C70.0857 18.2 69.8177 18.008 69.6257 17.768C69.4417 17.528 69.3497 17.26 69.3497 16.964V16.82C69.3497 16.74 69.3897 16.7 69.4697 16.7H70.0457C70.1257 16.7 70.1657 16.74 70.1657 16.82V16.916C70.1657 17.18 70.3017 17.412 70.5737 17.612C70.8537 17.804 71.2017 17.9 71.6177 17.9C72.0337 17.9 72.3697 17.808 72.6257 17.624C72.8817 17.432 73.0097 17.192 73.0097 16.904C73.0097 16.704 72.9417 16.54 72.8057 16.412C72.6777 16.284 72.5217 16.184 72.3377 16.112C72.1617 16.04 71.8857 15.948 71.5097 15.836C71.0617 15.708 70.6937 15.58 70.4057 15.452C70.1177 15.324 69.8737 15.148 69.6737 14.924C69.4817 14.692 69.3857 14.4 69.3857 14.048C69.3857 13.536 69.5857 13.128 69.9857 12.824C70.3857 12.52 70.9137 12.368 71.5697 12.368C72.0097 12.368 72.3977 12.44 72.7337 12.584C73.0777 12.728 73.3417 12.928 73.5257 13.184C73.7097 13.432 73.8017 13.712 73.8017 14.024V14.06C73.8017 14.14 73.7617 14.18 73.6817 14.18H73.1177C73.0377 14.18 72.9977 14.14 72.9977 14.06V14.024C72.9977 13.752 72.8657 13.524 72.6017 13.34C72.3457 13.156 71.9977 13.064 71.5577 13.064C71.1497 13.064 70.8217 13.148 70.5737 13.316C70.3257 13.476 70.2017 13.7 70.2017 13.988C70.2017 14.26 70.3217 14.468 70.5617 14.612C70.8017 14.756 71.1737 14.9 71.6777 15.044C72.1417 15.18 72.5177 15.308 72.8057 15.428C73.0937 15.548 73.3417 15.724 73.5497 15.956C73.7577 16.18 73.8617 16.476 73.8617 16.844C73.8617 17.364 73.6577 17.78 73.2497 18.092C72.8417 18.404 72.3017 18.56 71.6297 18.56Z" fill="white"/>
<path d="M86.2688 12.0927C85.7901 11.614 85.7901 10.8378 86.2688 10.359C86.7476 9.88032 87.5237 9.88032 88.0025 10.359L91.2898 13.6464C91.7685 14.1251 91.7685 14.9013 91.2898 15.38C90.8111 15.8587 90.0349 15.8587 89.5562 15.38L86.2688 12.0927Z" fill="white"/>
<path d="M86.2688 16.9073C85.7901 17.386 85.7901 18.1622 86.2688 18.641C86.7476 19.1197 87.5237 19.1197 88.0025 18.641L91.2898 15.3536C91.7685 14.8749 91.7685 14.0987 91.2898 13.62C90.8111 13.1413 90.0349 13.1413 89.5562 13.62L86.2688 16.9073Z" fill="white"/>
</svg>
