<svg width="304" height="287" viewBox="0 0 304 287" fill="none" xmlns="http://www.w3.org/2000/svg">
<g clip-path="url(#clip0_362_1288)">
<g opacity="0.3">
<path d="M268.444 -397.915C245.251 -458.431 210.96 -513.24 166.521 -560.811C122.088 -608.39 69.7464 -646.336 10.9539 -673.605C-49.9196 -701.839 -115.07 -717.322 -182.702 -719.632C-250.326 -721.942 -316.385 -710.936 -379.046 -686.921C-439.562 -663.722 -494.371 -629.43 -541.943 -584.998C-589.515 -540.566 -627.468 -488.224 -654.736 -429.431C-682.963 -368.551 -698.446 -303.4 -700.756 -235.776C-703.066 -168.151 -692.06 -102.093 -668.045 -39.4385C-644.853 21.0775 -610.562 75.8865 -566.122 123.458C-521.69 171.037 -469.348 208.983 -410.556 236.252C-349.682 264.486 -284.532 279.969 -216.9 282.279C-211.029 282.479 -205.179 282.579 -199.336 282.579C-137.84 282.579 -77.782 271.494 -20.5628 249.568C39.9532 226.376 94.7623 192.084 142.334 147.645C189.913 103.212 227.859 50.8706 255.128 -7.92188C283.362 -68.7954 298.845 -133.946 301.155 -201.577C303.465 -269.202 292.458 -335.26 268.444 -397.915ZM290.442 -201.942C281.409 62.7136 63.2528 271.852 -199.572 271.852C-205.193 271.852 -210.864 271.759 -216.528 271.559C-486.848 262.333 -699.262 34.9085 -690.036 -235.404C-681.004 -500.067 -462.84 -709.198 -200.015 -709.198C-194.394 -709.198 -188.723 -709.105 -183.066 -708.912C-52.1223 -704.442 69.2458 -649.247 158.683 -553.496C248.119 -457.744 294.904 -332.893 290.435 -201.942H290.442Z" fill="#3BA1E0"/>
<path d="M-169.348 223.166L-169.055 227.449C-52.4 219.411 54.8726 167.034 132.996 79.9784L129.799 77.1106C52.4268 163.336 -53.8088 215.206 -169.348 223.173V223.166Z" fill="#3BA1E0"/>
<path d="M-2.81168 -643.887C-59.709 -670.276 -120.604 -684.751 -183.816 -686.904C-247.021 -689.063 -308.767 -678.772 -367.331 -656.324C-423.892 -634.64 -475.118 -602.595 -519.586 -561.059C-564.054 -519.523 -599.526 -470.606 -625.014 -415.647C-651.403 -358.75 -665.877 -297.855 -668.03 -234.643C-670.19 -171.431 -659.899 -109.692 -637.45 -51.128C-615.767 5.43323 -583.721 56.6594 -542.185 101.127C-500.649 145.595 -451.733 181.067 -396.773 206.555C-339.876 232.944 -278.981 247.419 -215.769 249.571C-210.284 249.757 -204.813 249.85 -199.349 249.85C-141.873 249.85 -85.7333 239.495 -32.2544 218.991C24.3069 197.308 75.5331 165.262 120.001 123.726C164.469 82.1902 199.941 33.274 225.428 -21.6853C251.818 -78.5826 266.292 -139.478 268.445 -202.69C270.605 -265.902 260.314 -327.641 237.865 -386.204C216.182 -442.766 184.136 -493.992 142.6 -538.46C101.064 -582.928 52.1476 -618.399 -2.81168 -643.887ZM259.863 -202.983C255.672 -80.2061 203.917 33.5959 114.137 117.447C28.276 197.637 -82.508 241.261 -199.406 241.261C-204.749 241.261 -210.127 241.168 -215.49 240.989C-468.947 232.336 -668.109 19.0997 -659.462 -234.357C-655.272 -357.134 -603.516 -470.935 -513.736 -554.787C-427.875 -634.977 -317.092 -678.601 -200.193 -678.601C-194.851 -678.601 -189.473 -678.508 -184.109 -678.329C-61.3324 -674.138 52.4695 -622.383 136.321 -532.603C220.172 -442.823 264.047 -325.76 259.856 -202.976L259.863 -202.983Z" fill="#3BA1E0"/>
<path d="M85.8849 -485.498C51.2287 -522.6 10.4079 -552.2 -35.4403 -573.462C-82.912 -595.481 -133.723 -607.553 -186.466 -609.355C-239.201 -611.15 -290.727 -602.569 -339.586 -583.839C-386.779 -565.753 -429.524 -539.006 -466.626 -504.35C-503.728 -469.694 -533.328 -428.873 -554.589 -383.025C-576.609 -335.553 -588.68 -284.741 -590.483 -231.999C-592.285 -179.257 -583.696 -127.737 -564.966 -78.8784C-546.873 -31.6857 -520.133 11.0589 -485.477 48.1609C-450.821 85.2629 -410 114.863 -364.152 136.124C-316.68 158.144 -265.869 170.215 -213.127 172.018C-208.55 172.175 -203.987 172.254 -199.424 172.254C-151.466 172.254 -104.624 163.607 -59.9986 146.508C-12.8058 128.422 29.9387 101.676 67.0407 67.0193C104.143 32.3632 133.743 -8.45758 155.004 -54.3058C177.024 -101.778 189.095 -152.589 190.897 -205.331C192.7 -258.074 184.111 -309.593 165.381 -358.452C147.288 -405.645 120.548 -448.389 85.892 -485.491L85.8849 -485.498ZM182.309 -205.632C175.264 0.653442 5.22311 163.679 -199.632 163.665C-204.008 163.665 -208.435 163.593 -212.848 163.436C-423.545 156.241 -589.11 -21.0228 -581.915 -231.713C-574.871 -437.998 -404.83 -601.009 -199.975 -601.009C-195.598 -601.009 -191.171 -600.938 -186.759 -600.781C-84.6927 -597.298 9.90732 -554.274 79.613 -479.641C149.319 -405.008 185.791 -307.691 182.309 -205.632Z" fill="#3BA1E0"/>
<path d="M1.56505 -480.857C-33.8277 -508.04 -73.4899 -527.477 -116.313 -538.634C-157.677 -549.404 -200.236 -552.036 -242.802 -546.45C-285.367 -540.865 -325.809 -527.341 -362.99 -506.266C-401.486 -484.44 -434.791 -455.426 -461.974 -420.033C-489.157 -384.64 -508.594 -344.978 -519.751 -302.155C-530.521 -260.791 -533.153 -218.232 -527.567 -175.666C-521.982 -133.101 -508.459 -92.6588 -487.383 -55.4782C-465.557 -16.9817 -436.543 16.3229 -401.15 43.5057C-365.758 70.6886 -326.095 90.1264 -283.272 101.283C-255.989 108.391 -228.191 111.953 -200.207 111.953C-185.768 111.953 -171.272 111.002 -156.783 109.099C-114.218 103.514 -73.776 89.9905 -36.5954 68.915C1.90117 47.0887 35.2057 18.075 62.3886 -17.3178C89.5715 -52.7106 109.009 -92.3728 120.166 -135.196C130.936 -176.56 133.567 -219.119 127.982 -261.685C122.397 -304.25 108.873 -344.692 87.7979 -381.873C65.9715 -420.369 36.9579 -453.674 1.56505 -480.857ZM117.341 -260.283C128.454 -175.573 105.92 -91.6004 53.8783 -23.8471C1.83684 43.9134 -73.4757 87.3516 -158.185 98.465C-242.895 109.578 -326.868 87.0441 -394.621 35.0026C-534.497 -72.4272 -560.9 -273.62 -453.471 -413.497C-390.559 -495.41 -295.515 -538.405 -199.428 -538.405C-131.446 -538.405 -62.9272 -516.864 -4.96425 -472.346C62.7962 -420.305 106.234 -344.992 117.348 -260.283H117.341Z" fill="#3BA1E0"/>
<path d="M-11.7439 -463.536C-44.7982 -488.924 -81.8358 -507.074 -121.834 -517.494C-160.467 -527.556 -200.207 -530.009 -239.963 -524.796C-279.718 -519.582 -317.485 -506.953 -352.213 -487.264C-388.17 -466.883 -419.272 -439.786 -444.66 -406.731C-470.048 -373.677 -488.198 -336.64 -498.618 -296.641C-508.68 -258.009 -511.133 -218.268 -505.92 -178.513C-500.706 -138.758 -488.077 -100.99 -468.389 -66.2627C-448.007 -30.305 -420.91 0.796875 -387.856 26.1848C-354.801 51.5726 -317.764 69.723 -277.765 80.1428C-252.285 86.7794 -226.325 90.1049 -200.193 90.1049C-186.705 90.1049 -173.168 89.218 -159.637 87.4444C-119.882 82.231 -82.1147 69.6014 -47.387 49.9133C-11.4293 29.5316 19.6726 2.43457 45.0605 -30.6197C70.4483 -63.6739 88.5988 -100.712 99.0185 -140.71C109.081 -179.342 111.534 -219.083 106.32 -258.838C101.107 -298.594 88.4772 -336.361 68.7891 -371.088C48.4073 -407.046 21.3103 -438.148 -11.7439 -463.536ZM93.0827 -284.469L87.1112 -283.132C78.6439 -320.963 63.0751 -356.185 40.8482 -387.816C17.8633 -420.519 -11.2004 -447.824 -45.5276 -468.964L-47.7804 -465.309C19.3222 -423.981 65.7426 -358.952 82.9205 -282.195L85.0159 -282.667L76.291 -280.708C92.5536 -208.277 80.0528 -133.558 41.1057 -70.3105L55.802 -61.2567C50.4169 -52.5533 44.567 -44.0717 38.2522 -35.8474C-10.5854 27.7366 -81.2565 68.5002 -160.753 78.9342C-240.249 89.3611 -319.044 68.2141 -382.628 19.3765C-446.212 -29.4611 -486.975 -100.132 -497.41 -179.628C-507.844 -259.124 -486.689 -337.92 -437.852 -401.504C-389.014 -465.088 -318.343 -505.851 -238.847 -516.285C-225.581 -518.023 -212.336 -518.888 -199.178 -518.888C-133.477 -518.888 -69.9428 -497.42 -16.9645 -456.735C39.3965 -413.454 77.8214 -353.009 93.0899 -284.476L93.0827 -284.469Z" fill="#3BA1E0"/>
<path d="M-233.347 -474.334C-266.552 -469.979 -298.09 -459.431 -327.096 -442.989C-357.125 -425.969 -383.1 -403.334 -404.304 -375.729C-425.508 -348.125 -440.669 -317.187 -449.365 -283.783C-457.768 -251.522 -459.821 -218.325 -455.466 -185.12C-451.11 -151.916 -440.562 -120.378 -424.121 -91.3715C-407.1 -61.3423 -384.466 -35.368 -356.861 -14.1638C-329.256 7.04034 -298.319 22.2015 -264.914 30.8978C-243.631 36.4402 -221.955 39.2221 -200.129 39.2221C-188.865 39.2221 -177.558 38.4784 -166.259 36.998C-133.055 32.6428 -101.516 22.0943 -72.5099 5.65298C-42.4808 -11.3676 -16.5066 -34.0021 4.69763 -61.6069C25.9019 -89.2117 41.063 -120.149 49.7592 -153.554C58.1623 -185.814 60.2148 -219.011 55.8595 -252.216C51.5042 -285.42 40.9558 -316.958 24.5145 -345.965C7.4939 -375.994 -15.1406 -401.968 -42.7454 -423.173C-70.3502 -444.377 -101.288 -459.538 -134.692 -468.234C-166.953 -476.637 -200.15 -478.69 -233.354 -474.334H-233.347ZM47.3564 -251.1C56.0168 -185.085 38.4527 -119.648 -2.10342 -66.8418C-85.826 42.1685 -242.623 62.7433 -351.626 -20.9792C-404.433 -61.5354 -438.288 -120.228 -446.948 -186.243C-455.609 -252.259 -438.045 -317.695 -397.488 -370.502C-348.458 -434.343 -274.39 -467.841 -199.513 -467.841C-146.535 -467.841 -93.1349 -451.056 -47.966 -416.364C4.84067 -375.808 38.6959 -317.116 47.3564 -251.1Z" fill="#3BA1E0"/>
</g>
</g>
<defs>
<clipPath id="clip0_362_1288">
<rect width="1006.93" height="1006.93" fill="white" transform="translate(-703.262 -719.933)"/>
</clipPath>
</defs>
</svg>
