<svg width="1441" height="59" viewBox="0 0 1441 59" fill="none" xmlns="http://www.w3.org/2000/svg">
<rect width="1440" height="59" transform="translate(0.779266)" fill="#0073FA"/>
<path d="M455.959 23.992C455.959 23.9387 455.975 23.896 456.007 23.864C456.05 23.8213 456.098 23.8 456.151 23.8H457.623C457.677 23.8 457.719 23.8213 457.751 23.864C457.794 23.896 457.815 23.9387 457.815 23.992V34.808C457.815 34.8613 457.794 34.9093 457.751 34.952C457.719 34.984 457.677 35 457.623 35H456.199C456.093 35 456.018 34.9573 455.975 34.872L451.367 27.32C451.346 27.288 451.325 27.2773 451.303 27.288C451.282 27.288 451.271 27.3093 451.271 27.352L451.303 34.808C451.303 34.8613 451.282 34.9093 451.239 34.952C451.207 34.984 451.165 35 451.111 35H449.639C449.586 35 449.538 34.984 449.495 34.952C449.463 34.9093 449.447 34.8613 449.447 34.808V23.992C449.447 23.9387 449.463 23.896 449.495 23.864C449.538 23.8213 449.586 23.8 449.639 23.8H451.063C451.17 23.8 451.245 23.8427 451.287 23.928L455.879 31.48C455.901 31.512 455.922 31.528 455.943 31.528C455.965 31.5173 455.975 31.4907 455.975 31.448L455.959 23.992ZM463.446 35.128C462.604 35.128 461.878 34.9147 461.27 34.488C460.673 34.0613 460.252 33.4693 460.006 32.712C459.825 32.136 459.734 31.528 459.734 30.888C459.734 30.2053 459.82 29.5973 459.99 29.064C460.236 28.3173 460.662 27.736 461.27 27.32C461.878 26.904 462.609 26.696 463.462 26.696C464.273 26.696 464.972 26.904 465.558 27.32C466.156 27.736 466.577 28.312 466.822 29.048C467.014 29.56 467.11 30.168 467.11 30.872C467.11 31.544 467.02 32.152 466.838 32.696C466.593 33.4533 466.172 34.0507 465.574 34.488C464.977 34.9147 464.268 35.128 463.446 35.128ZM463.446 33.528C463.841 33.528 464.177 33.416 464.454 33.192C464.742 32.968 464.95 32.6533 465.078 32.248C465.185 31.896 465.238 31.448 465.238 30.904C465.238 30.328 465.185 29.88 465.078 29.56C464.961 29.1547 464.758 28.8453 464.47 28.632C464.182 28.408 463.83 28.296 463.414 28.296C463.02 28.296 462.678 28.408 462.39 28.632C462.102 28.8453 461.894 29.1547 461.766 29.56C461.66 29.9333 461.606 30.3813 461.606 30.904C461.606 31.4267 461.66 31.8747 461.766 32.248C461.884 32.6533 462.086 32.968 462.374 33.192C462.673 33.416 463.03 33.528 463.446 33.528ZM472.26 35C472.207 35 472.159 34.984 472.116 34.952C472.084 34.9093 472.068 34.8613 472.068 34.808V23.992C472.068 23.9387 472.084 23.896 472.116 23.864C472.159 23.8213 472.207 23.8 472.26 23.8H473.732C473.786 23.8 473.828 23.8213 473.86 23.864C473.903 23.896 473.924 23.9387 473.924 23.992V34.808C473.924 34.8613 473.903 34.9093 473.86 34.952C473.828 34.984 473.786 35 473.732 35H472.26ZM479.368 35.128C478.526 35.128 477.8 34.9147 477.192 34.488C476.595 34.0613 476.174 33.4693 475.928 32.712C475.747 32.136 475.656 31.528 475.656 30.888C475.656 30.2053 475.742 29.5973 475.912 29.064C476.158 28.3173 476.584 27.736 477.192 27.32C477.8 26.904 478.531 26.696 479.384 26.696C480.195 26.696 480.894 26.904 481.48 27.32C482.078 27.736 482.499 28.312 482.744 29.048C482.936 29.56 483.032 30.168 483.032 30.872C483.032 31.544 482.942 32.152 482.76 32.696C482.515 33.4533 482.094 34.0507 481.496 34.488C480.899 34.9147 480.19 35.128 479.368 35.128ZM479.368 33.528C479.763 33.528 480.099 33.416 480.376 33.192C480.664 32.968 480.872 32.6533 481 32.248C481.107 31.896 481.16 31.448 481.16 30.904C481.16 30.328 481.107 29.88 481 29.56C480.883 29.1547 480.68 28.8453 480.392 28.632C480.104 28.408 479.752 28.296 479.336 28.296C478.942 28.296 478.6 28.408 478.312 28.632C478.024 28.8453 477.816 29.1547 477.688 29.56C477.582 29.9333 477.528 30.3813 477.528 30.904C477.528 31.4267 477.582 31.8747 477.688 32.248C477.806 32.6533 478.008 32.968 478.296 33.192C478.595 33.416 478.952 33.528 479.368 33.528ZM488.707 26.696C489.571 26.696 490.259 26.952 490.771 27.464C491.294 27.976 491.555 28.6747 491.555 29.56V34.808C491.555 34.8613 491.534 34.9093 491.491 34.952C491.459 34.984 491.416 35 491.363 35H489.891C489.838 35 489.79 34.984 489.747 34.952C489.715 34.9093 489.699 34.8613 489.699 34.808V29.944C489.699 29.4533 489.56 29.0587 489.283 28.76C489.006 28.4507 488.638 28.296 488.179 28.296C487.72 28.296 487.347 28.4453 487.059 28.744C486.782 29.0427 486.643 29.4373 486.643 29.928V34.808C486.643 34.8613 486.622 34.9093 486.579 34.952C486.547 34.984 486.504 35 486.451 35H484.979C484.926 35 484.878 34.984 484.835 34.952C484.803 34.9093 484.787 34.8613 484.787 34.808V27.016C484.787 26.9627 484.803 26.92 484.835 26.888C484.878 26.8453 484.926 26.824 484.979 26.824H486.451C486.504 26.824 486.547 26.8453 486.579 26.888C486.622 26.92 486.643 26.9627 486.643 27.016V27.528C486.643 27.56 486.654 27.5813 486.675 27.592C486.696 27.6027 486.712 27.592 486.723 27.56C487.16 26.984 487.822 26.696 488.707 26.696ZM498.498 27.016C498.498 26.9627 498.514 26.92 498.546 26.888C498.589 26.8453 498.637 26.824 498.69 26.824H500.162C500.215 26.824 500.258 26.8453 500.29 26.888C500.333 26.92 500.354 26.9627 500.354 27.016V34.456C500.354 35.7893 499.97 36.7387 499.202 37.304C498.445 37.88 497.447 38.168 496.21 38.168C495.879 38.168 495.554 38.152 495.234 38.12C495.117 38.1093 495.058 38.04 495.058 37.912L495.106 36.6C495.106 36.4827 495.181 36.424 495.33 36.424C495.639 36.456 495.917 36.472 496.162 36.472C496.962 36.472 497.549 36.312 497.922 35.992C498.306 35.6827 498.498 35.1547 498.498 34.408V34.28C498.498 34.248 498.487 34.232 498.466 34.232C498.445 34.2213 498.423 34.2267 498.402 34.248C497.965 34.7173 497.346 34.952 496.546 34.952C495.853 34.952 495.218 34.776 494.642 34.424C494.066 34.072 493.666 33.5333 493.442 32.808C493.303 32.3067 493.234 31.6613 493.234 30.872C493.234 29.9867 493.319 29.3093 493.49 28.84C493.703 28.1893 494.071 27.672 494.594 27.288C495.117 26.8933 495.73 26.696 496.434 26.696C497.277 26.696 497.933 26.9413 498.402 27.432C498.423 27.464 498.445 27.4747 498.466 27.464C498.487 27.4533 498.498 27.432 498.498 27.4V27.016ZM498.386 32.28C498.429 32.12 498.455 31.9493 498.466 31.768C498.487 31.576 498.498 31.272 498.498 30.856C498.498 30.4507 498.487 30.1627 498.466 29.992C498.455 29.8107 498.423 29.6347 498.37 29.464C498.285 29.112 498.109 28.8293 497.842 28.616C497.586 28.4027 497.255 28.296 496.85 28.296C496.466 28.296 496.141 28.4027 495.874 28.616C495.607 28.8293 495.415 29.112 495.298 29.464C495.17 29.7627 495.106 30.232 495.106 30.872C495.106 31.5333 495.159 31.9973 495.266 32.264C495.373 32.6053 495.565 32.888 495.842 33.112C496.13 33.3253 496.471 33.432 496.866 33.432C497.282 33.432 497.618 33.3253 497.874 33.112C498.13 32.8987 498.301 32.6213 498.386 32.28ZM507.41 35C507.293 35 507.218 34.9467 507.186 34.84L504.898 27.032L504.882 26.968C504.882 26.8613 504.941 26.808 505.058 26.808H506.578C506.696 26.808 506.77 26.8613 506.802 26.968L508.13 32.312C508.141 32.344 508.157 32.36 508.178 32.36C508.2 32.36 508.216 32.344 508.226 32.312L509.618 26.968C509.65 26.8613 509.725 26.808 509.842 26.808H511.17C511.288 26.808 511.362 26.8613 511.394 26.968L512.818 32.312C512.829 32.344 512.845 32.36 512.866 32.36C512.888 32.36 512.904 32.344 512.914 32.312L514.338 26.968C514.37 26.8613 514.445 26.808 514.562 26.808L516.066 26.84C516.13 26.84 516.173 26.8613 516.194 26.904C516.226 26.936 516.237 26.984 516.226 27.048L513.922 34.84C513.89 34.9467 513.821 35 513.714 35H512.178C512.061 35 511.986 34.9467 511.954 34.84L510.546 29.96C510.536 29.928 510.52 29.912 510.498 29.912C510.477 29.912 510.461 29.928 510.45 29.96L509.154 34.84C509.122 34.9467 509.048 35 508.93 35H507.41ZM520.407 26.696C521.079 26.696 521.671 26.8133 522.183 27.048C522.695 27.2827 523.09 27.608 523.367 28.024C523.644 28.4293 523.783 28.8933 523.783 29.416V34.808C523.783 34.8613 523.762 34.9093 523.719 34.952C523.687 34.984 523.644 35 523.591 35H522.119C522.066 35 522.018 34.984 521.975 34.952C521.943 34.9093 521.927 34.8613 521.927 34.808V34.296C521.927 34.264 521.916 34.248 521.895 34.248C521.874 34.2373 521.852 34.2427 521.831 34.264C521.308 34.84 520.551 35.128 519.559 35.128C518.759 35.128 518.098 34.9253 517.575 34.52C517.063 34.1147 516.807 33.512 516.807 32.712C516.807 31.88 517.095 31.2347 517.671 30.776C518.258 30.3067 519.079 30.072 520.135 30.072H521.847C521.9 30.072 521.927 30.0453 521.927 29.992V29.608C521.927 29.192 521.804 28.872 521.559 28.648C521.314 28.4133 520.946 28.296 520.455 28.296C520.05 28.296 519.719 28.3707 519.463 28.52C519.218 28.6587 519.063 28.856 518.999 29.112C518.967 29.24 518.892 29.2933 518.775 29.272L517.223 29.08C517.17 29.0693 517.122 29.0533 517.079 29.032C517.047 29 517.036 28.9627 517.047 28.92C517.132 28.2693 517.479 27.736 518.087 27.32C518.706 26.904 519.479 26.696 520.407 26.696ZM520.023 33.656C520.546 33.656 520.994 33.5173 521.367 33.24C521.74 32.9627 521.927 32.6107 521.927 32.184V31.432C521.927 31.3787 521.9 31.352 521.847 31.352H520.503C519.938 31.352 519.49 31.4587 519.159 31.672C518.839 31.8853 518.679 32.1893 518.679 32.584C518.679 32.9253 518.802 33.192 519.047 33.384C519.303 33.5653 519.628 33.656 520.023 33.656ZM526.702 25.704C526.372 25.704 526.1 25.5973 525.886 25.384C525.673 25.1707 525.566 24.8987 525.566 24.568C525.566 24.2373 525.673 23.9653 525.886 23.752C526.1 23.5387 526.372 23.432 526.702 23.432C527.033 23.432 527.305 23.5387 527.518 23.752C527.732 23.9653 527.838 24.2373 527.838 24.568C527.838 24.8987 527.732 25.1707 527.518 25.384C527.305 25.5973 527.033 25.704 526.702 25.704ZM525.934 35C525.881 35 525.833 34.984 525.79 34.952C525.758 34.9093 525.742 34.8613 525.742 34.808V27C525.742 26.9467 525.758 26.904 525.79 26.872C525.833 26.8293 525.881 26.808 525.934 26.808H527.406C527.46 26.808 527.502 26.8293 527.534 26.872C527.577 26.904 527.598 26.9467 527.598 27V34.808C527.598 34.8613 527.577 34.9093 527.534 34.952C527.502 34.984 527.46 35 527.406 35H525.934ZM534.06 28.136C534.06 28.1893 534.039 28.2373 533.996 28.28C533.964 28.312 533.922 28.328 533.868 28.328H532.236C532.183 28.328 532.156 28.3547 532.156 28.408V32.264C532.156 32.6693 532.242 32.9627 532.412 33.144C532.594 33.3253 532.876 33.416 533.26 33.416H533.74C533.794 33.416 533.836 33.4373 533.868 33.48C533.911 33.512 533.932 33.5547 533.932 33.608V34.808C533.932 34.9253 533.868 34.9947 533.74 35.016L532.908 35.032C532.066 35.032 531.436 34.888 531.02 34.6C530.604 34.312 530.391 33.768 530.38 32.968V28.408C530.38 28.3547 530.354 28.328 530.3 28.328H529.388C529.335 28.328 529.287 28.312 529.244 28.28C529.212 28.2373 529.196 28.1893 529.196 28.136V27.016C529.196 26.9627 529.212 26.92 529.244 26.888C529.287 26.8453 529.335 26.824 529.388 26.824H530.3C530.354 26.824 530.38 26.7973 530.38 26.744V24.872C530.38 24.8187 530.396 24.776 530.428 24.744C530.471 24.7013 530.519 24.68 530.572 24.68H531.964C532.018 24.68 532.06 24.7013 532.092 24.744C532.135 24.776 532.156 24.8187 532.156 24.872V26.744C532.156 26.7973 532.183 26.824 532.236 26.824H533.868C533.922 26.824 533.964 26.8453 533.996 26.888C534.039 26.92 534.06 26.9627 534.06 27.016V28.136ZM538.749 35.096C538.077 35.096 537.485 35 536.973 34.808C536.471 34.6053 536.082 34.3333 535.805 33.992C535.527 33.64 535.389 33.2507 535.389 32.824V32.68C535.389 32.6267 535.405 32.584 535.437 32.552C535.479 32.5093 535.527 32.488 535.581 32.488H536.989C537.042 32.488 537.085 32.5093 537.117 32.552C537.159 32.584 537.181 32.6267 537.181 32.68V32.712C537.181 32.9787 537.325 33.2133 537.613 33.416C537.911 33.608 538.285 33.704 538.733 33.704C539.159 33.704 539.506 33.6187 539.773 33.448C540.039 33.2667 540.173 33.0427 540.173 32.776C540.173 32.5307 540.061 32.3493 539.837 32.232C539.623 32.104 539.271 31.9707 538.781 31.832L538.173 31.64C537.629 31.48 537.17 31.3093 536.797 31.128C536.423 30.9467 536.109 30.7013 535.853 30.392C535.597 30.072 535.469 29.6667 535.469 29.176C535.469 28.4293 535.762 27.8373 536.349 27.4C536.935 26.952 537.709 26.728 538.669 26.728C539.319 26.728 539.89 26.8347 540.381 27.048C540.871 27.2507 541.25 27.5387 541.517 27.912C541.783 28.2747 541.917 28.6907 541.917 29.16C541.917 29.2133 541.895 29.2613 541.853 29.304C541.821 29.336 541.778 29.352 541.725 29.352H540.365C540.311 29.352 540.263 29.336 540.221 29.304C540.189 29.2613 540.173 29.2133 540.173 29.16C540.173 28.8827 540.034 28.6533 539.757 28.472C539.49 28.28 539.122 28.184 538.653 28.184C538.237 28.184 537.895 28.264 537.629 28.424C537.373 28.5733 537.245 28.7867 537.245 29.064C537.245 29.32 537.367 29.5173 537.613 29.656C537.869 29.784 538.29 29.928 538.877 30.088L539.229 30.184C539.794 30.3547 540.269 30.5307 540.653 30.712C541.037 30.8827 541.362 31.128 541.629 31.448C541.895 31.7573 542.029 32.1627 542.029 32.664C542.029 33.4213 541.73 34.0187 541.133 34.456C540.535 34.8827 539.741 35.096 538.749 35.096ZM543.583 36.456C543.455 36.456 543.397 36.3867 543.407 36.248L543.999 32.664C544.01 32.5467 544.079 32.488 544.207 32.488H545.487C545.626 32.488 545.679 32.5573 545.647 32.696L544.703 36.296C544.671 36.4027 544.597 36.456 544.479 36.456H543.583ZM555.005 35.16C554.205 35.16 553.496 35 552.877 34.68C552.258 34.3493 551.778 33.8853 551.437 33.288C551.106 32.6907 550.941 32.0027 550.941 31.224V27.576C550.941 26.808 551.112 26.1307 551.453 25.544C551.794 24.9467 552.269 24.488 552.877 24.168C553.496 23.8373 554.205 23.672 555.005 23.672C555.816 23.672 556.525 23.8373 557.133 24.168C557.752 24.488 558.232 24.9467 558.573 25.544C558.914 26.1307 559.085 26.808 559.085 27.576V31.224C559.085 32.0027 558.914 32.6907 558.573 33.288C558.232 33.8853 557.752 34.3493 557.133 34.68C556.525 35 555.816 35.16 555.005 35.16ZM555.005 33.56C555.677 33.56 556.216 33.352 556.621 32.936C557.026 32.52 557.229 31.9707 557.229 31.288V27.56C557.229 26.8667 557.026 26.312 556.621 25.896C556.216 25.48 555.677 25.272 555.005 25.272C554.344 25.272 553.81 25.48 553.405 25.896C553 26.312 552.797 26.8667 552.797 27.56V31.288C552.797 31.9707 553 32.52 553.405 32.936C553.81 33.352 554.344 33.56 555.005 33.56ZM565.806 27.016C565.806 26.9627 565.822 26.92 565.854 26.888C565.897 26.8453 565.945 26.824 565.998 26.824H567.454C567.508 26.824 567.55 26.8453 567.582 26.888C567.625 26.92 567.646 26.9627 567.646 27.016V34.808C567.646 34.8613 567.625 34.9093 567.582 34.952C567.55 34.984 567.508 35 567.454 35H565.998C565.945 35 565.897 34.984 565.854 34.952C565.822 34.9093 565.806 34.8613 565.806 34.808V34.296C565.806 34.264 565.796 34.2427 565.774 34.232C565.753 34.2213 565.732 34.232 565.71 34.264C565.273 34.8293 564.617 35.112 563.742 35.112C562.932 35.112 562.249 34.8773 561.694 34.408C561.15 33.9387 560.878 33.272 560.878 32.408V27.016C560.878 26.9627 560.894 26.92 560.926 26.888C560.969 26.8453 561.017 26.824 561.07 26.824H562.542C562.596 26.824 562.638 26.8453 562.67 26.888C562.713 26.92 562.734 26.9627 562.734 27.016V31.88C562.734 32.3813 562.862 32.7813 563.118 33.08C563.385 33.3787 563.753 33.528 564.222 33.528C564.702 33.528 565.086 33.3787 565.374 33.08C565.662 32.7813 565.806 32.3813 565.806 31.88V27.016ZM573.439 26.728C573.78 26.728 574.079 26.7973 574.335 26.936C574.42 26.9787 574.452 27.0587 574.431 27.176L574.159 28.616C574.148 28.744 574.073 28.7813 573.935 28.728C573.775 28.6747 573.588 28.648 573.375 28.648C573.236 28.648 573.129 28.6533 573.055 28.664C572.607 28.6853 572.233 28.8453 571.935 29.144C571.636 29.432 571.487 29.8107 571.487 30.28V34.808C571.487 34.8613 571.465 34.9093 571.423 34.952C571.391 34.984 571.348 35 571.295 35H569.823C569.769 35 569.721 34.984 569.679 34.952C569.647 34.9093 569.631 34.8613 569.631 34.808V27.016C569.631 26.9627 569.647 26.92 569.679 26.888C569.721 26.8453 569.769 26.824 569.823 26.824H571.295C571.348 26.824 571.391 26.8453 571.423 26.888C571.465 26.92 571.487 26.9627 571.487 27.016V27.736C571.487 27.7787 571.492 27.8053 571.503 27.816C571.524 27.816 571.545 27.8 571.567 27.768C572.015 27.0747 572.639 26.728 573.439 26.728ZM581.889 35.096C581.217 35.096 580.625 35 580.113 34.808C579.612 34.6053 579.223 34.3333 578.945 33.992C578.668 33.64 578.529 33.2507 578.529 32.824V32.68C578.529 32.6267 578.545 32.584 578.577 32.552C578.62 32.5093 578.668 32.488 578.721 32.488H580.129C580.183 32.488 580.225 32.5093 580.257 32.552C580.3 32.584 580.321 32.6267 580.321 32.68V32.712C580.321 32.9787 580.465 33.2133 580.753 33.416C581.052 33.608 581.425 33.704 581.873 33.704C582.3 33.704 582.647 33.6187 582.913 33.448C583.18 33.2667 583.313 33.0427 583.313 32.776C583.313 32.5307 583.201 32.3493 582.977 32.232C582.764 32.104 582.412 31.9707 581.921 31.832L581.313 31.64C580.769 31.48 580.311 31.3093 579.937 31.128C579.564 30.9467 579.249 30.7013 578.993 30.392C578.737 30.072 578.609 29.6667 578.609 29.176C578.609 28.4293 578.903 27.8373 579.489 27.4C580.076 26.952 580.849 26.728 581.809 26.728C582.46 26.728 583.031 26.8347 583.521 27.048C584.012 27.2507 584.391 27.5387 584.657 27.912C584.924 28.2747 585.057 28.6907 585.057 29.16C585.057 29.2133 585.036 29.2613 584.993 29.304C584.961 29.336 584.919 29.352 584.865 29.352H583.505C583.452 29.352 583.404 29.336 583.361 29.304C583.329 29.2613 583.313 29.2133 583.313 29.16C583.313 28.8827 583.175 28.6533 582.897 28.472C582.631 28.28 582.263 28.184 581.793 28.184C581.377 28.184 581.036 28.264 580.769 28.424C580.513 28.5733 580.385 28.7867 580.385 29.064C580.385 29.32 580.508 29.5173 580.753 29.656C581.009 29.784 581.431 29.928 582.017 30.088L582.369 30.184C582.935 30.3547 583.409 30.5307 583.793 30.712C584.177 30.8827 584.503 31.128 584.769 31.448C585.036 31.7573 585.169 32.1627 585.169 32.664C585.169 33.4213 584.871 34.0187 584.273 34.456C583.676 34.8827 582.881 35.096 581.889 35.096ZM593.636 29.992C593.679 30.2587 593.7 30.5573 593.7 30.888L593.684 31.384C593.684 31.512 593.62 31.576 593.492 31.576H588.484C588.431 31.576 588.404 31.6027 588.404 31.656C588.436 32.008 588.484 32.248 588.548 32.376C588.804 33.144 589.428 33.5333 590.42 33.544C591.145 33.544 591.721 33.2453 592.148 32.648C592.191 32.584 592.244 32.552 592.308 32.552C592.351 32.552 592.388 32.568 592.42 32.6L593.412 33.416C593.508 33.4907 593.524 33.576 593.46 33.672C593.129 34.1413 592.687 34.504 592.132 34.76C591.588 35.016 590.98 35.144 590.308 35.144C589.476 35.144 588.767 34.9573 588.18 34.584C587.604 34.2107 587.183 33.688 586.916 33.016C586.671 32.44 586.548 31.64 586.548 30.616C586.548 29.9973 586.612 29.496 586.74 29.112C586.953 28.3653 587.353 27.7787 587.94 27.352C588.537 26.9147 589.252 26.696 590.084 26.696C592.185 26.696 593.369 27.7947 593.636 29.992ZM590.084 28.296C589.689 28.296 589.359 28.3973 589.092 28.6C588.836 28.792 588.655 29.064 588.548 29.416C588.484 29.5973 588.441 29.832 588.42 30.12C588.399 30.1733 588.42 30.2 588.484 30.2H591.732C591.785 30.2 591.812 30.1733 591.812 30.12C591.791 29.8533 591.759 29.6507 591.716 29.512C591.62 29.128 591.428 28.8293 591.14 28.616C590.863 28.4027 590.511 28.296 590.084 28.296ZM599.204 26.728C599.546 26.728 599.844 26.7973 600.1 26.936C600.186 26.9787 600.218 27.0587 600.196 27.176L599.924 28.616C599.914 28.744 599.839 28.7813 599.7 28.728C599.54 28.6747 599.354 28.648 599.14 28.648C599.002 28.648 598.895 28.6533 598.82 28.664C598.372 28.6853 597.999 28.8453 597.7 29.144C597.402 29.432 597.252 29.8107 597.252 30.28V34.808C597.252 34.8613 597.231 34.9093 597.188 34.952C597.156 34.984 597.114 35 597.06 35H595.588C595.535 35 595.487 34.984 595.444 34.952C595.412 34.9093 595.396 34.8613 595.396 34.808V27.016C595.396 26.9627 595.412 26.92 595.444 26.888C595.487 26.8453 595.535 26.824 595.588 26.824H597.06C597.114 26.824 597.156 26.8453 597.188 26.888C597.231 26.92 597.252 26.9627 597.252 27.016V27.736C597.252 27.7787 597.258 27.8053 597.268 27.816C597.29 27.816 597.311 27.8 597.332 27.768C597.78 27.0747 598.404 26.728 599.204 26.728ZM603.886 35C603.779 35 603.71 34.9467 603.678 34.84L601.102 27.032C601.091 27.0107 601.086 26.984 601.086 26.952C601.086 26.856 601.144 26.808 601.262 26.808H602.894C603.011 26.808 603.086 26.8613 603.118 26.968L604.67 32.312C604.68 32.344 604.696 32.36 604.718 32.36C604.739 32.36 604.755 32.344 604.766 32.312L606.318 26.968C606.35 26.8613 606.424 26.808 606.542 26.808L608.174 26.84C608.238 26.84 608.286 26.8613 608.318 26.904C608.35 26.936 608.355 26.9893 608.334 27.064L605.774 34.84C605.742 34.9467 605.672 35 605.566 35H603.886ZM610.796 25.704C610.465 25.704 610.193 25.5973 609.98 25.384C609.767 25.1707 609.66 24.8987 609.66 24.568C609.66 24.2373 609.767 23.9653 609.98 23.752C610.193 23.5387 610.465 23.432 610.796 23.432C611.127 23.432 611.399 23.5387 611.612 23.752C611.825 23.9653 611.932 24.2373 611.932 24.568C611.932 24.8987 611.825 25.1707 611.612 25.384C611.399 25.5973 611.127 25.704 610.796 25.704ZM610.028 35C609.975 35 609.927 34.984 609.884 34.952C609.852 34.9093 609.836 34.8613 609.836 34.808V27C609.836 26.9467 609.852 26.904 609.884 26.872C609.927 26.8293 609.975 26.808 610.028 26.808H611.5C611.553 26.808 611.596 26.8293 611.628 26.872C611.671 26.904 611.692 26.9467 611.692 27V34.808C611.692 34.8613 611.671 34.9093 611.628 34.952C611.596 34.984 611.553 35 611.5 35H610.028ZM617.226 35.128C616.405 35.128 615.696 34.92 615.098 34.504C614.501 34.0773 614.085 33.5067 613.85 32.792C613.68 32.312 613.594 31.672 613.594 30.872C613.594 30.104 613.68 29.4747 613.85 28.984C614.074 28.28 614.485 27.7253 615.082 27.32C615.69 26.904 616.405 26.696 617.226 26.696C618.058 26.696 618.784 26.904 619.402 27.32C620.021 27.736 620.432 28.2587 620.634 28.888C620.688 29.0587 620.725 29.2293 620.746 29.4V29.432C620.746 29.5387 620.688 29.6027 620.57 29.624L619.13 29.832H619.098C619.002 29.832 618.938 29.7787 618.906 29.672C618.906 29.6187 618.901 29.576 618.89 29.544C618.869 29.4587 618.848 29.384 618.826 29.32C618.73 29.0213 618.538 28.776 618.25 28.584C617.962 28.392 617.621 28.296 617.226 28.296C616.821 28.296 616.474 28.4027 616.186 28.616C615.909 28.8187 615.722 29.1013 615.626 29.464C615.52 29.8053 615.466 30.28 615.466 30.888C615.466 31.4747 615.514 31.9493 615.61 32.312C615.717 32.6853 615.909 32.984 616.186 33.208C616.464 33.4213 616.81 33.528 617.226 33.528C617.632 33.528 617.978 33.4267 618.266 33.224C618.565 33.0107 618.757 32.728 618.842 32.376C618.853 32.3547 618.858 32.328 618.858 32.296C618.869 32.2853 618.874 32.2693 618.874 32.248C618.906 32.12 618.981 32.0667 619.098 32.088L620.538 32.312C620.592 32.3227 620.634 32.3493 620.666 32.392C620.709 32.424 620.725 32.472 620.714 32.536C620.682 32.7067 620.656 32.8293 620.634 32.904C620.432 33.5867 620.021 34.1307 619.402 34.536C618.784 34.9307 618.058 35.128 617.226 35.128ZM629.136 29.992C629.179 30.2587 629.2 30.5573 629.2 30.888L629.184 31.384C629.184 31.512 629.12 31.576 628.992 31.576H623.984C623.931 31.576 623.904 31.6027 623.904 31.656C623.936 32.008 623.984 32.248 624.048 32.376C624.304 33.144 624.928 33.5333 625.92 33.544C626.645 33.544 627.221 33.2453 627.648 32.648C627.691 32.584 627.744 32.552 627.808 32.552C627.851 32.552 627.888 32.568 627.92 32.6L628.912 33.416C629.008 33.4907 629.024 33.576 628.96 33.672C628.629 34.1413 628.187 34.504 627.632 34.76C627.088 35.016 626.48 35.144 625.808 35.144C624.976 35.144 624.267 34.9573 623.68 34.584C623.104 34.2107 622.683 33.688 622.416 33.016C622.171 32.44 622.048 31.64 622.048 30.616C622.048 29.9973 622.112 29.496 622.24 29.112C622.453 28.3653 622.853 27.7787 623.44 27.352C624.037 26.9147 624.752 26.696 625.584 26.696C627.685 26.696 628.869 27.7947 629.136 29.992ZM625.584 28.296C625.189 28.296 624.859 28.3973 624.592 28.6C624.336 28.792 624.155 29.064 624.048 29.416C623.984 29.5973 623.941 29.832 623.92 30.12C623.899 30.1733 623.92 30.2 623.984 30.2H627.232C627.285 30.2 627.312 30.1733 627.312 30.12C627.291 29.8533 627.259 29.6507 627.216 29.512C627.12 29.128 626.928 28.8293 626.64 28.616C626.363 28.4027 626.011 28.296 625.584 28.296ZM635.155 25.704C634.825 25.704 634.553 25.5973 634.339 25.384C634.126 25.1707 634.019 24.8987 634.019 24.568C634.019 24.2373 634.126 23.9653 634.339 23.752C634.553 23.5387 634.825 23.432 635.155 23.432C635.486 23.432 635.758 23.5387 635.971 23.752C636.185 23.9653 636.291 24.2373 636.291 24.568C636.291 24.8987 636.185 25.1707 635.971 25.384C635.758 25.5973 635.486 25.704 635.155 25.704ZM634.387 35C634.334 35 634.286 34.984 634.243 34.952C634.211 34.9093 634.195 34.8613 634.195 34.808V27C634.195 26.9467 634.211 26.904 634.243 26.872C634.286 26.8293 634.334 26.808 634.387 26.808H635.859C635.913 26.808 635.955 26.8293 635.987 26.872C636.03 26.904 636.051 26.9467 636.051 27V34.808C636.051 34.8613 636.03 34.9093 635.987 34.952C635.955 34.984 635.913 35 635.859 35H634.387ZM641.218 35.096C640.546 35.096 639.954 35 639.442 34.808C638.94 34.6053 638.551 34.3333 638.274 33.992C637.996 33.64 637.858 33.2507 637.858 32.824V32.68C637.858 32.6267 637.874 32.584 637.906 32.552C637.948 32.5093 637.996 32.488 638.05 32.488H639.458C639.511 32.488 639.554 32.5093 639.586 32.552C639.628 32.584 639.65 32.6267 639.65 32.68V32.712C639.65 32.9787 639.794 33.2133 640.082 33.416C640.38 33.608 640.754 33.704 641.202 33.704C641.628 33.704 641.975 33.6187 642.242 33.448C642.508 33.2667 642.642 33.0427 642.642 32.776C642.642 32.5307 642.53 32.3493 642.306 32.232C642.092 32.104 641.74 31.9707 641.25 31.832L640.642 31.64C640.098 31.48 639.639 31.3093 639.266 31.128C638.892 30.9467 638.578 30.7013 638.322 30.392C638.066 30.072 637.938 29.6667 637.938 29.176C637.938 28.4293 638.231 27.8373 638.818 27.4C639.404 26.952 640.178 26.728 641.138 26.728C641.788 26.728 642.359 26.8347 642.85 27.048C643.34 27.2507 643.719 27.5387 643.986 27.912C644.252 28.2747 644.386 28.6907 644.386 29.16C644.386 29.2133 644.364 29.2613 644.322 29.304C644.29 29.336 644.247 29.352 644.194 29.352H642.834C642.78 29.352 642.732 29.336 642.69 29.304C642.658 29.2613 642.642 29.2133 642.642 29.16C642.642 28.8827 642.503 28.6533 642.226 28.472C641.959 28.28 641.591 28.184 641.122 28.184C640.706 28.184 640.364 28.264 640.098 28.424C639.842 28.5733 639.714 28.7867 639.714 29.064C639.714 29.32 639.836 29.5173 640.082 29.656C640.338 29.784 640.759 29.928 641.346 30.088L641.698 30.184C642.263 30.3547 642.738 30.5307 643.122 30.712C643.506 30.8827 643.831 31.128 644.098 31.448C644.364 31.7573 644.498 32.1627 644.498 32.664C644.498 33.4213 644.199 34.0187 643.602 34.456C643.004 34.8827 642.21 35.096 641.218 35.096ZM653.527 26.808C653.581 26.808 653.623 26.8293 653.655 26.872C653.698 26.904 653.719 26.9467 653.719 27V28.264C653.719 28.3173 653.698 28.3653 653.655 28.408C653.623 28.44 653.581 28.456 653.527 28.456H651.943C651.89 28.456 651.863 28.4827 651.863 28.536V34.808C651.863 34.8613 651.842 34.9093 651.799 34.952C651.767 34.984 651.725 35 651.671 35H650.199C650.146 35 650.098 34.984 650.055 34.952C650.023 34.9093 650.007 34.8613 650.007 34.808V28.536C650.007 28.4827 649.981 28.456 649.927 28.456H648.935C648.882 28.456 648.834 28.44 648.791 28.408C648.759 28.3653 648.743 28.3173 648.743 28.264V27C648.743 26.9467 648.759 26.904 648.791 26.872C648.834 26.8293 648.882 26.808 648.935 26.808H649.927C649.981 26.808 650.007 26.7813 650.007 26.728V26.44C650.007 25.7467 650.098 25.2133 650.279 24.84C650.461 24.456 650.759 24.184 651.175 24.024C651.591 23.864 652.178 23.7893 652.935 23.8H653.495C653.549 23.8 653.591 23.8213 653.623 23.864C653.666 23.896 653.687 23.9387 653.687 23.992V25.112C653.687 25.1653 653.666 25.2133 653.623 25.256C653.591 25.288 653.549 25.304 653.495 25.304H653.079C652.621 25.304 652.301 25.3947 652.119 25.576C651.949 25.7573 651.863 26.088 651.863 26.568V26.728C651.863 26.7813 651.89 26.808 651.943 26.808H653.527ZM658.235 26.696C658.907 26.696 659.499 26.8133 660.011 27.048C660.523 27.2827 660.918 27.608 661.195 28.024C661.472 28.4293 661.611 28.8933 661.611 29.416V34.808C661.611 34.8613 661.59 34.9093 661.547 34.952C661.515 34.984 661.472 35 661.419 35H659.947C659.894 35 659.846 34.984 659.803 34.952C659.771 34.9093 659.755 34.8613 659.755 34.808V34.296C659.755 34.264 659.744 34.248 659.723 34.248C659.702 34.2373 659.68 34.2427 659.659 34.264C659.136 34.84 658.379 35.128 657.387 35.128C656.587 35.128 655.926 34.9253 655.403 34.52C654.891 34.1147 654.635 33.512 654.635 32.712C654.635 31.88 654.923 31.2347 655.499 30.776C656.086 30.3067 656.907 30.072 657.963 30.072H659.675C659.728 30.072 659.755 30.0453 659.755 29.992V29.608C659.755 29.192 659.632 28.872 659.387 28.648C659.142 28.4133 658.774 28.296 658.283 28.296C657.878 28.296 657.547 28.3707 657.291 28.52C657.046 28.6587 656.891 28.856 656.827 29.112C656.795 29.24 656.72 29.2933 656.603 29.272L655.051 29.08C654.998 29.0693 654.95 29.0533 654.907 29.032C654.875 29 654.864 28.9627 654.875 28.92C654.96 28.2693 655.307 27.736 655.915 27.32C656.534 26.904 657.307 26.696 658.235 26.696ZM657.851 33.656C658.374 33.656 658.822 33.5173 659.195 33.24C659.568 32.9627 659.755 32.6107 659.755 32.184V31.432C659.755 31.3787 659.728 31.352 659.675 31.352H658.331C657.766 31.352 657.318 31.4587 656.987 31.672C656.667 31.8853 656.507 32.1893 656.507 32.584C656.507 32.9253 656.63 33.192 656.875 33.384C657.131 33.5653 657.456 33.656 657.851 33.656ZM666.514 35.096C665.842 35.096 665.25 35 664.738 34.808C664.237 34.6053 663.848 34.3333 663.57 33.992C663.293 33.64 663.154 33.2507 663.154 32.824V32.68C663.154 32.6267 663.17 32.584 663.202 32.552C663.245 32.5093 663.293 32.488 663.346 32.488H664.754C664.808 32.488 664.85 32.5093 664.882 32.552C664.925 32.584 664.946 32.6267 664.946 32.68V32.712C664.946 32.9787 665.09 33.2133 665.378 33.416C665.677 33.608 666.05 33.704 666.498 33.704C666.925 33.704 667.272 33.6187 667.538 33.448C667.805 33.2667 667.938 33.0427 667.938 32.776C667.938 32.5307 667.826 32.3493 667.602 32.232C667.389 32.104 667.037 31.9707 666.546 31.832L665.938 31.64C665.394 31.48 664.936 31.3093 664.562 31.128C664.189 30.9467 663.874 30.7013 663.618 30.392C663.362 30.072 663.234 29.6667 663.234 29.176C663.234 28.4293 663.528 27.8373 664.114 27.4C664.701 26.952 665.474 26.728 666.434 26.728C667.085 26.728 667.656 26.8347 668.146 27.048C668.637 27.2507 669.016 27.5387 669.282 27.912C669.549 28.2747 669.682 28.6907 669.682 29.16C669.682 29.2133 669.661 29.2613 669.618 29.304C669.586 29.336 669.544 29.352 669.49 29.352H668.13C668.077 29.352 668.029 29.336 667.986 29.304C667.954 29.2613 667.938 29.2133 667.938 29.16C667.938 28.8827 667.8 28.6533 667.522 28.472C667.256 28.28 666.888 28.184 666.418 28.184C666.002 28.184 665.661 28.264 665.394 28.424C665.138 28.5733 665.01 28.7867 665.01 29.064C665.01 29.32 665.133 29.5173 665.378 29.656C665.634 29.784 666.056 29.928 666.642 30.088L666.994 30.184C667.56 30.3547 668.034 30.5307 668.418 30.712C668.802 30.8827 669.128 31.128 669.394 31.448C669.661 31.7573 669.794 32.1627 669.794 32.664C669.794 33.4213 669.496 34.0187 668.898 34.456C668.301 34.8827 667.506 35.096 666.514 35.096ZM675.685 28.136C675.685 28.1893 675.664 28.2373 675.621 28.28C675.589 28.312 675.547 28.328 675.493 28.328H673.861C673.808 28.328 673.781 28.3547 673.781 28.408V32.264C673.781 32.6693 673.867 32.9627 674.037 33.144C674.219 33.3253 674.501 33.416 674.885 33.416H675.365C675.419 33.416 675.461 33.4373 675.493 33.48C675.536 33.512 675.557 33.5547 675.557 33.608V34.808C675.557 34.9253 675.493 34.9947 675.365 35.016L674.533 35.032C673.691 35.032 673.061 34.888 672.645 34.6C672.229 34.312 672.016 33.768 672.005 32.968V28.408C672.005 28.3547 671.979 28.328 671.925 28.328H671.013C670.96 28.328 670.912 28.312 670.869 28.28C670.837 28.2373 670.821 28.1893 670.821 28.136V27.016C670.821 26.9627 670.837 26.92 670.869 26.888C670.912 26.8453 670.96 26.824 671.013 26.824H671.925C671.979 26.824 672.005 26.7973 672.005 26.744V24.872C672.005 24.8187 672.021 24.776 672.053 24.744C672.096 24.7013 672.144 24.68 672.197 24.68H673.589C673.643 24.68 673.685 24.7013 673.717 24.744C673.76 24.776 673.781 24.8187 673.781 24.872V26.744C673.781 26.7973 673.808 26.824 673.861 26.824H675.493C675.547 26.824 675.589 26.8453 675.621 26.888C675.664 26.92 675.685 26.9627 675.685 27.016V28.136ZM683.657 26.696C684.329 26.696 684.921 26.8133 685.433 27.048C685.945 27.2827 686.34 27.608 686.617 28.024C686.894 28.4293 687.033 28.8933 687.033 29.416V34.808C687.033 34.8613 687.012 34.9093 686.969 34.952C686.937 34.984 686.894 35 686.841 35H685.369C685.316 35 685.268 34.984 685.225 34.952C685.193 34.9093 685.177 34.8613 685.177 34.808V34.296C685.177 34.264 685.166 34.248 685.145 34.248C685.124 34.2373 685.102 34.2427 685.081 34.264C684.558 34.84 683.801 35.128 682.809 35.128C682.009 35.128 681.348 34.9253 680.825 34.52C680.313 34.1147 680.057 33.512 680.057 32.712C680.057 31.88 680.345 31.2347 680.921 30.776C681.508 30.3067 682.329 30.072 683.385 30.072H685.097C685.15 30.072 685.177 30.0453 685.177 29.992V29.608C685.177 29.192 685.054 28.872 684.809 28.648C684.564 28.4133 684.196 28.296 683.705 28.296C683.3 28.296 682.969 28.3707 682.713 28.52C682.468 28.6587 682.313 28.856 682.249 29.112C682.217 29.24 682.142 29.2933 682.025 29.272L680.473 29.08C680.42 29.0693 680.372 29.0533 680.329 29.032C680.297 29 680.286 28.9627 680.297 28.92C680.382 28.2693 680.729 27.736 681.337 27.32C681.956 26.904 682.729 26.696 683.657 26.696ZM683.273 33.656C683.796 33.656 684.244 33.5173 684.617 33.24C684.99 32.9627 685.177 32.6107 685.177 32.184V31.432C685.177 31.3787 685.15 31.352 685.097 31.352H683.753C683.188 31.352 682.74 31.4587 682.409 31.672C682.089 31.8853 681.929 32.1893 681.929 32.584C681.929 32.9253 682.052 33.192 682.297 33.384C682.553 33.5653 682.878 33.656 683.273 33.656ZM692.816 26.696C693.68 26.696 694.368 26.952 694.88 27.464C695.403 27.976 695.664 28.6747 695.664 29.56V34.808C695.664 34.8613 695.643 34.9093 695.6 34.952C695.568 34.984 695.526 35 695.472 35H694C693.947 35 693.899 34.984 693.856 34.952C693.824 34.9093 693.808 34.8613 693.808 34.808V29.944C693.808 29.4533 693.67 29.0587 693.392 28.76C693.115 28.4507 692.747 28.296 692.288 28.296C691.83 28.296 691.456 28.4453 691.168 28.744C690.891 29.0427 690.752 29.4373 690.752 29.928V34.808C690.752 34.8613 690.731 34.9093 690.688 34.952C690.656 34.984 690.614 35 690.56 35H689.088C689.035 35 688.987 34.984 688.944 34.952C688.912 34.9093 688.896 34.8613 688.896 34.808V27.016C688.896 26.9627 688.912 26.92 688.944 26.888C688.987 26.8453 689.035 26.824 689.088 26.824H690.56C690.614 26.824 690.656 26.8453 690.688 26.888C690.731 26.92 690.752 26.9627 690.752 27.016V27.528C690.752 27.56 690.763 27.5813 690.784 27.592C690.806 27.6027 690.822 27.592 690.832 27.56C691.27 26.984 691.931 26.696 692.816 26.696ZM702.609 23.992C702.609 23.9387 702.625 23.896 702.657 23.864C702.7 23.8213 702.748 23.8 702.801 23.8H704.273C704.326 23.8 704.369 23.8213 704.401 23.864C704.444 23.896 704.465 23.9387 704.465 23.992V34.808C704.465 34.8613 704.444 34.9093 704.401 34.952C704.369 34.984 704.326 35 704.273 35H702.801C702.748 35 702.7 34.984 702.657 34.952C702.625 34.9093 702.609 34.8613 702.609 34.808V34.328C702.609 34.296 702.598 34.2747 702.577 34.264C702.556 34.2533 702.534 34.264 702.513 34.296C702.044 34.8507 701.43 35.128 700.673 35.128C699.916 35.128 699.276 34.9307 698.753 34.536C698.23 34.1413 697.852 33.592 697.617 32.888C697.425 32.2907 697.329 31.624 697.329 30.888C697.329 30.1307 697.42 29.48 697.601 28.936C697.836 28.232 698.214 27.6827 698.737 27.288C699.26 26.8933 699.916 26.696 700.705 26.696C701.441 26.696 702.044 26.9627 702.513 27.496C702.534 27.5173 702.556 27.528 702.577 27.528C702.598 27.5173 702.609 27.496 702.609 27.464V23.992ZM702.225 32.76C702.47 32.3227 702.593 31.704 702.593 30.904C702.593 30.072 702.46 29.4373 702.193 29C701.905 28.5307 701.5 28.296 700.977 28.296C700.433 28.296 700.006 28.52 699.697 28.968C699.377 29.4373 699.217 30.088 699.217 30.92C699.217 31.6667 699.345 32.28 699.601 32.76C699.9 33.272 700.353 33.528 700.961 33.528C701.505 33.528 701.926 33.272 702.225 32.76ZM712.798 26.696C713.47 26.696 714.062 26.8133 714.574 27.048C715.086 27.2827 715.48 27.608 715.758 28.024C716.035 28.4293 716.174 28.8933 716.174 29.416V34.808C716.174 34.8613 716.152 34.9093 716.11 34.952C716.078 34.984 716.035 35 715.982 35H714.51C714.456 35 714.408 34.984 714.366 34.952C714.334 34.9093 714.318 34.8613 714.318 34.808V34.296C714.318 34.264 714.307 34.248 714.286 34.248C714.264 34.2373 714.243 34.2427 714.222 34.264C713.699 34.84 712.942 35.128 711.95 35.128C711.15 35.128 710.488 34.9253 709.966 34.52C709.454 34.1147 709.198 33.512 709.198 32.712C709.198 31.88 709.486 31.2347 710.062 30.776C710.648 30.3067 711.47 30.072 712.526 30.072H714.238C714.291 30.072 714.318 30.0453 714.318 29.992V29.608C714.318 29.192 714.195 28.872 713.95 28.648C713.704 28.4133 713.336 28.296 712.846 28.296C712.44 28.296 712.11 28.3707 711.854 28.52C711.608 28.6587 711.454 28.856 711.39 29.112C711.358 29.24 711.283 29.2933 711.166 29.272L709.614 29.08C709.56 29.0693 709.512 29.0533 709.47 29.032C709.438 29 709.427 28.9627 709.438 28.92C709.523 28.2693 709.87 27.736 710.478 27.32C711.096 26.904 711.87 26.696 712.798 26.696ZM712.414 33.656C712.936 33.656 713.384 33.5173 713.758 33.24C714.131 32.9627 714.318 32.6107 714.318 32.184V31.432C714.318 31.3787 714.291 31.352 714.238 31.352H712.894C712.328 31.352 711.88 31.4587 711.55 31.672C711.23 31.8853 711.07 32.1893 711.07 32.584C711.07 32.9253 711.192 33.192 711.438 33.384C711.694 33.5653 712.019 33.656 712.414 33.656ZM723.109 23.992C723.109 23.9387 723.125 23.896 723.157 23.864C723.2 23.8213 723.248 23.8 723.301 23.8H724.773C724.826 23.8 724.869 23.8213 724.901 23.864C724.944 23.896 724.965 23.9387 724.965 23.992V34.808C724.965 34.8613 724.944 34.9093 724.901 34.952C724.869 34.984 724.826 35 724.773 35H723.301C723.248 35 723.2 34.984 723.157 34.952C723.125 34.9093 723.109 34.8613 723.109 34.808V34.328C723.109 34.296 723.098 34.2747 723.077 34.264C723.056 34.2533 723.034 34.264 723.013 34.296C722.544 34.8507 721.93 35.128 721.173 35.128C720.416 35.128 719.776 34.9307 719.253 34.536C718.73 34.1413 718.352 33.592 718.117 32.888C717.925 32.2907 717.829 31.624 717.829 30.888C717.829 30.1307 717.92 29.48 718.101 28.936C718.336 28.232 718.714 27.6827 719.237 27.288C719.76 26.8933 720.416 26.696 721.205 26.696C721.941 26.696 722.544 26.9627 723.013 27.496C723.034 27.5173 723.056 27.528 723.077 27.528C723.098 27.5173 723.109 27.496 723.109 27.464V23.992ZM722.725 32.76C722.97 32.3227 723.093 31.704 723.093 30.904C723.093 30.072 722.96 29.4373 722.693 29C722.405 28.5307 722 28.296 721.477 28.296C720.933 28.296 720.506 28.52 720.197 28.968C719.877 29.4373 719.717 30.088 719.717 30.92C719.717 31.6667 719.845 32.28 720.101 32.76C720.4 33.272 720.853 33.528 721.461 33.528C722.005 33.528 722.426 33.272 722.725 32.76ZM730.094 26.696C730.766 26.696 731.358 26.8133 731.87 27.048C732.382 27.2827 732.777 27.608 733.054 28.024C733.332 28.4293 733.47 28.8933 733.47 29.416V34.808C733.47 34.8613 733.449 34.9093 733.406 34.952C733.374 34.984 733.332 35 733.278 35H731.806C731.753 35 731.705 34.984 731.662 34.952C731.63 34.9093 731.614 34.8613 731.614 34.808V34.296C731.614 34.264 731.604 34.248 731.582 34.248C731.561 34.2373 731.54 34.2427 731.518 34.264C730.996 34.84 730.238 35.128 729.246 35.128C728.446 35.128 727.785 34.9253 727.262 34.52C726.75 34.1147 726.494 33.512 726.494 32.712C726.494 31.88 726.782 31.2347 727.358 30.776C727.945 30.3067 728.766 30.072 729.822 30.072H731.534C731.588 30.072 731.614 30.0453 731.614 29.992V29.608C731.614 29.192 731.492 28.872 731.246 28.648C731.001 28.4133 730.633 28.296 730.142 28.296C729.737 28.296 729.406 28.3707 729.15 28.52C728.905 28.6587 728.75 28.856 728.686 29.112C728.654 29.24 728.58 29.2933 728.462 29.272L726.91 29.08C726.857 29.0693 726.809 29.0533 726.766 29.032C726.734 29 726.724 28.9627 726.734 28.92C726.82 28.2693 727.166 27.736 727.774 27.32C728.393 26.904 729.166 26.696 730.094 26.696ZM729.71 33.656C730.233 33.656 730.681 33.5173 731.054 33.24C731.428 32.9627 731.614 32.6107 731.614 32.184V31.432C731.614 31.3787 731.588 31.352 731.534 31.352H730.19C729.625 31.352 729.177 31.4587 728.846 31.672C728.526 31.8853 728.366 32.1893 728.366 32.584C728.366 32.9253 728.489 33.192 728.734 33.384C728.99 33.5653 729.316 33.656 729.71 33.656ZM742.262 28.936C742.454 29.48 742.55 30.1467 742.55 30.936C742.55 31.6933 742.459 32.344 742.278 32.888C742.043 33.592 741.664 34.1413 741.142 34.536C740.63 34.9307 739.979 35.128 739.19 35.128C738.432 35.128 737.824 34.856 737.366 34.312C737.344 34.2907 737.323 34.2853 737.302 34.296C737.28 34.3067 737.27 34.328 737.27 34.36V37.832C737.27 37.8853 737.248 37.928 737.206 37.96C737.174 38.0027 737.131 38.024 737.078 38.024H735.606C735.552 38.024 735.504 38.0027 735.462 37.96C735.43 37.928 735.414 37.8853 735.414 37.832V27.016C735.414 26.9627 735.43 26.92 735.462 26.888C735.504 26.8453 735.552 26.824 735.606 26.824H737.078C737.131 26.824 737.174 26.8453 737.206 26.888C737.248 26.92 737.27 26.9627 737.27 27.016V27.496C737.27 27.528 737.28 27.5493 737.302 27.56C737.323 27.5707 737.344 27.56 737.366 27.528C737.835 26.9733 738.448 26.696 739.206 26.696C739.963 26.696 740.603 26.8933 741.126 27.288C741.648 27.6827 742.027 28.232 742.262 28.936ZM740.182 32.856C740.502 32.3653 740.662 31.7147 740.662 30.904C740.662 30.1253 740.534 29.512 740.278 29.064C739.979 28.5413 739.526 28.28 738.918 28.28C738.363 28.28 737.947 28.536 737.67 29.048C737.424 29.464 737.302 30.0827 737.302 30.904C737.302 31.7467 737.435 32.3867 737.702 32.824C737.979 33.2933 738.379 33.528 738.902 33.528C739.467 33.528 739.894 33.304 740.182 32.856ZM748.685 28.136C748.685 28.1893 748.664 28.2373 748.621 28.28C748.589 28.312 748.547 28.328 748.493 28.328H746.861C746.808 28.328 746.781 28.3547 746.781 28.408V32.264C746.781 32.6693 746.867 32.9627 747.037 33.144C747.219 33.3253 747.501 33.416 747.885 33.416H748.365C748.419 33.416 748.461 33.4373 748.493 33.48C748.536 33.512 748.557 33.5547 748.557 33.608V34.808C748.557 34.9253 748.493 34.9947 748.365 35.016L747.533 35.032C746.691 35.032 746.061 34.888 745.645 34.6C745.229 34.312 745.016 33.768 745.005 32.968V28.408C745.005 28.3547 744.979 28.328 744.925 28.328H744.013C743.96 28.328 743.912 28.312 743.869 28.28C743.837 28.2373 743.821 28.1893 743.821 28.136V27.016C743.821 26.9627 743.837 26.92 743.869 26.888C743.912 26.8453 743.96 26.824 744.013 26.824H744.925C744.979 26.824 745.005 26.7973 745.005 26.744V24.872C745.005 24.8187 745.021 24.776 745.053 24.744C745.096 24.7013 745.144 24.68 745.197 24.68H746.589C746.643 24.68 746.685 24.7013 746.717 24.744C746.76 24.776 746.781 24.8187 746.781 24.872V26.744C746.781 26.7973 746.808 26.824 746.861 26.824H748.493C748.547 26.824 748.589 26.8453 748.621 26.888C748.664 26.92 748.685 26.9627 748.685 27.016V28.136ZM753.374 35.096C752.702 35.096 752.11 35 751.598 34.808C751.096 34.6053 750.707 34.3333 750.43 33.992C750.152 33.64 750.014 33.2507 750.014 32.824V32.68C750.014 32.6267 750.03 32.584 750.062 32.552C750.104 32.5093 750.152 32.488 750.206 32.488H751.614C751.667 32.488 751.71 32.5093 751.742 32.552C751.784 32.584 751.806 32.6267 751.806 32.68V32.712C751.806 32.9787 751.95 33.2133 752.238 33.416C752.536 33.608 752.91 33.704 753.358 33.704C753.784 33.704 754.131 33.6187 754.398 33.448C754.664 33.2667 754.798 33.0427 754.798 32.776C754.798 32.5307 754.686 32.3493 754.462 32.232C754.248 32.104 753.896 31.9707 753.406 31.832L752.798 31.64C752.254 31.48 751.795 31.3093 751.422 31.128C751.048 30.9467 750.734 30.7013 750.478 30.392C750.222 30.072 750.094 29.6667 750.094 29.176C750.094 28.4293 750.387 27.8373 750.974 27.4C751.56 26.952 752.334 26.728 753.294 26.728C753.944 26.728 754.515 26.8347 755.006 27.048C755.496 27.2507 755.875 27.5387 756.142 27.912C756.408 28.2747 756.542 28.6907 756.542 29.16C756.542 29.2133 756.52 29.2613 756.478 29.304C756.446 29.336 756.403 29.352 756.35 29.352H754.99C754.936 29.352 754.888 29.336 754.846 29.304C754.814 29.2613 754.798 29.2133 754.798 29.16C754.798 28.8827 754.659 28.6533 754.382 28.472C754.115 28.28 753.747 28.184 753.278 28.184C752.862 28.184 752.52 28.264 752.254 28.424C751.998 28.5733 751.87 28.7867 751.87 29.064C751.87 29.32 751.992 29.5173 752.238 29.656C752.494 29.784 752.915 29.928 753.502 30.088L753.854 30.184C754.419 30.3547 754.894 30.5307 755.278 30.712C755.662 30.8827 755.987 31.128 756.254 31.448C756.52 31.7573 756.654 32.1627 756.654 32.664C756.654 33.4213 756.355 34.0187 755.758 34.456C755.16 34.8827 754.366 35.096 753.374 35.096ZM764.468 35.096C763.796 35.096 763.204 35 762.692 34.808C762.19 34.6053 761.801 34.3333 761.524 33.992C761.246 33.64 761.108 33.2507 761.108 32.824V32.68C761.108 32.6267 761.124 32.584 761.156 32.552C761.198 32.5093 761.246 32.488 761.3 32.488H762.708C762.761 32.488 762.804 32.5093 762.836 32.552C762.878 32.584 762.9 32.6267 762.9 32.68V32.712C762.9 32.9787 763.044 33.2133 763.332 33.416C763.63 33.608 764.004 33.704 764.452 33.704C764.878 33.704 765.225 33.6187 765.492 33.448C765.758 33.2667 765.892 33.0427 765.892 32.776C765.892 32.5307 765.78 32.3493 765.556 32.232C765.342 32.104 764.99 31.9707 764.5 31.832L763.892 31.64C763.348 31.48 762.889 31.3093 762.516 31.128C762.142 30.9467 761.828 30.7013 761.572 30.392C761.316 30.072 761.188 29.6667 761.188 29.176C761.188 28.4293 761.481 27.8373 762.068 27.4C762.654 26.952 763.428 26.728 764.388 26.728C765.038 26.728 765.609 26.8347 766.1 27.048C766.59 27.2507 766.969 27.5387 767.236 27.912C767.502 28.2747 767.636 28.6907 767.636 29.16C767.636 29.2133 767.614 29.2613 767.572 29.304C767.54 29.336 767.497 29.352 767.444 29.352H766.084C766.03 29.352 765.982 29.336 765.94 29.304C765.908 29.2613 765.892 29.2133 765.892 29.16C765.892 28.8827 765.753 28.6533 765.476 28.472C765.209 28.28 764.841 28.184 764.372 28.184C763.956 28.184 763.614 28.264 763.348 28.424C763.092 28.5733 762.964 28.7867 762.964 29.064C762.964 29.32 763.086 29.5173 763.332 29.656C763.588 29.784 764.009 29.928 764.596 30.088L764.948 30.184C765.513 30.3547 765.988 30.5307 766.372 30.712C766.756 30.8827 767.081 31.128 767.348 31.448C767.614 31.7573 767.748 32.1627 767.748 32.664C767.748 33.4213 767.449 34.0187 766.852 34.456C766.254 34.8827 765.46 35.096 764.468 35.096ZM776.214 29.992C776.257 30.2587 776.278 30.5573 776.278 30.888L776.262 31.384C776.262 31.512 776.198 31.576 776.07 31.576H771.062C771.009 31.576 770.982 31.6027 770.982 31.656C771.014 32.008 771.062 32.248 771.126 32.376C771.382 33.144 772.006 33.5333 772.998 33.544C773.724 33.544 774.3 33.2453 774.726 32.648C774.769 32.584 774.822 32.552 774.886 32.552C774.929 32.552 774.966 32.568 774.998 32.6L775.99 33.416C776.086 33.4907 776.102 33.576 776.038 33.672C775.708 34.1413 775.265 34.504 774.71 34.76C774.166 35.016 773.558 35.144 772.886 35.144C772.054 35.144 771.345 34.9573 770.758 34.584C770.182 34.2107 769.761 33.688 769.494 33.016C769.249 32.44 769.126 31.64 769.126 30.616C769.126 29.9973 769.19 29.496 769.318 29.112C769.532 28.3653 769.932 27.7787 770.518 27.352C771.116 26.9147 771.83 26.696 772.662 26.696C774.764 26.696 775.948 27.7947 776.214 29.992ZM772.662 28.296C772.268 28.296 771.937 28.3973 771.67 28.6C771.414 28.792 771.233 29.064 771.126 29.416C771.062 29.5973 771.02 29.832 770.998 30.12C770.977 30.1733 770.998 30.2 771.062 30.2H774.31C774.364 30.2 774.39 30.1733 774.39 30.12C774.369 29.8533 774.337 29.6507 774.294 29.512C774.198 29.128 774.006 28.8293 773.718 28.616C773.441 28.4027 773.089 28.296 772.662 28.296ZM781.016 26.696C781.688 26.696 782.28 26.8133 782.792 27.048C783.304 27.2827 783.699 27.608 783.976 28.024C784.254 28.4293 784.392 28.8933 784.392 29.416V34.808C784.392 34.8613 784.371 34.9093 784.328 34.952C784.296 34.984 784.254 35 784.2 35H782.728C782.675 35 782.627 34.984 782.584 34.952C782.552 34.9093 782.536 34.8613 782.536 34.808V34.296C782.536 34.264 782.526 34.248 782.504 34.248C782.483 34.2373 782.462 34.2427 782.44 34.264C781.918 34.84 781.16 35.128 780.168 35.128C779.368 35.128 778.707 34.9253 778.184 34.52C777.672 34.1147 777.416 33.512 777.416 32.712C777.416 31.88 777.704 31.2347 778.28 30.776C778.867 30.3067 779.688 30.072 780.744 30.072H782.456C782.51 30.072 782.536 30.0453 782.536 29.992V29.608C782.536 29.192 782.414 28.872 782.168 28.648C781.923 28.4133 781.555 28.296 781.064 28.296C780.659 28.296 780.328 28.3707 780.072 28.52C779.827 28.6587 779.672 28.856 779.608 29.112C779.576 29.24 779.502 29.2933 779.384 29.272L777.832 29.08C777.779 29.0693 777.731 29.0533 777.688 29.032C777.656 29 777.646 28.9627 777.656 28.92C777.742 28.2693 778.088 27.736 778.696 27.32C779.315 26.904 780.088 26.696 781.016 26.696ZM780.632 33.656C781.155 33.656 781.603 33.5173 781.976 33.24C782.35 32.9627 782.536 32.6107 782.536 32.184V31.432C782.536 31.3787 782.51 31.352 782.456 31.352H781.112C780.547 31.352 780.099 31.4587 779.768 31.672C779.448 31.8853 779.288 32.1893 779.288 32.584C779.288 32.9253 779.411 33.192 779.656 33.384C779.912 33.5653 780.238 33.656 780.632 33.656ZM795.008 26.696C795.829 26.696 796.469 26.9467 796.928 27.448C797.397 27.9387 797.632 28.6267 797.632 29.512V34.808C797.632 34.8613 797.61 34.9093 797.568 34.952C797.536 34.984 797.493 35 797.44 35H795.984C795.93 35 795.882 34.984 795.84 34.952C795.808 34.9093 795.792 34.8613 795.792 34.808V29.896C795.792 29.4053 795.658 29.016 795.392 28.728C795.136 28.44 794.789 28.296 794.352 28.296C793.914 28.296 793.557 28.44 793.28 28.728C793.002 29.016 792.864 29.4 792.864 29.88V34.808C792.864 34.8613 792.842 34.9093 792.8 34.952C792.768 34.984 792.725 35 792.672 35H791.216C791.162 35 791.114 34.984 791.072 34.952C791.04 34.9093 791.024 34.8613 791.024 34.808V29.896C791.024 29.4053 790.89 29.016 790.624 28.728C790.357 28.44 790.005 28.296 789.568 28.296C789.162 28.296 788.826 28.4133 788.56 28.648C788.304 28.8827 788.154 29.2027 788.112 29.608V34.808C788.112 34.8613 788.09 34.9093 788.048 34.952C788.016 34.984 787.973 35 787.92 35H786.448C786.394 35 786.346 34.984 786.304 34.952C786.272 34.9093 786.256 34.8613 786.256 34.808V27.016C786.256 26.9627 786.272 26.92 786.304 26.888C786.346 26.8453 786.394 26.824 786.448 26.824H787.92C787.973 26.824 788.016 26.8453 788.048 26.888C788.09 26.92 788.112 26.9627 788.112 27.016V27.544C788.112 27.576 788.122 27.5973 788.144 27.608C788.165 27.6187 788.186 27.608 788.208 27.576C788.442 27.2773 788.73 27.0587 789.072 26.92C789.424 26.7707 789.813 26.696 790.24 26.696C790.762 26.696 791.221 26.8027 791.616 27.016C792.01 27.2293 792.314 27.5387 792.528 27.944C792.56 27.9867 792.597 27.9867 792.64 27.944C792.874 27.5173 793.2 27.2027 793.616 27C794.032 26.7973 794.496 26.696 795.008 26.696ZM799.713 35C799.66 35 799.612 34.984 799.569 34.952C799.537 34.9093 799.521 34.8613 799.521 34.808V23.992C799.521 23.9387 799.537 23.896 799.569 23.864C799.612 23.8213 799.66 23.8 799.713 23.8H801.185C801.239 23.8 801.281 23.8213 801.313 23.864C801.356 23.896 801.377 23.9387 801.377 23.992V34.808C801.377 34.8613 801.356 34.9093 801.313 34.952C801.281 34.984 801.239 35 801.185 35H799.713ZM810.245 29.992C810.288 30.2587 810.309 30.5573 810.309 30.888L810.293 31.384C810.293 31.512 810.229 31.576 810.101 31.576H805.093C805.04 31.576 805.013 31.6027 805.013 31.656C805.045 32.008 805.093 32.248 805.157 32.376C805.413 33.144 806.037 33.5333 807.029 33.544C807.755 33.544 808.331 33.2453 808.757 32.648C808.8 32.584 808.853 32.552 808.917 32.552C808.96 32.552 808.997 32.568 809.029 32.6L810.021 33.416C810.117 33.4907 810.133 33.576 810.069 33.672C809.739 34.1413 809.296 34.504 808.741 34.76C808.197 35.016 807.589 35.144 806.917 35.144C806.085 35.144 805.376 34.9573 804.789 34.584C804.213 34.2107 803.792 33.688 803.525 33.016C803.28 32.44 803.157 31.64 803.157 30.616C803.157 29.9973 803.221 29.496 803.349 29.112C803.563 28.3653 803.963 27.7787 804.549 27.352C805.147 26.9147 805.861 26.696 806.693 26.696C808.795 26.696 809.979 27.7947 810.245 29.992ZM806.693 28.296C806.299 28.296 805.968 28.3973 805.701 28.6C805.445 28.792 805.264 29.064 805.157 29.416C805.093 29.5973 805.051 29.832 805.029 30.12C805.008 30.1733 805.029 30.2 805.093 30.2H808.341C808.395 30.2 808.421 30.1733 808.421 30.12C808.4 29.8533 808.368 29.6507 808.325 29.512C808.229 29.128 808.037 28.8293 807.749 28.616C807.472 28.4027 807.12 28.296 806.693 28.296ZM814.921 35.096C814.249 35.096 813.657 35 813.145 34.808C812.643 34.6053 812.254 34.3333 811.977 33.992C811.699 33.64 811.561 33.2507 811.561 32.824V32.68C811.561 32.6267 811.577 32.584 811.609 32.552C811.651 32.5093 811.699 32.488 811.753 32.488H813.161C813.214 32.488 813.257 32.5093 813.289 32.552C813.331 32.584 813.353 32.6267 813.353 32.68V32.712C813.353 32.9787 813.497 33.2133 813.785 33.416C814.083 33.608 814.457 33.704 814.905 33.704C815.331 33.704 815.678 33.6187 815.945 33.448C816.211 33.2667 816.345 33.0427 816.345 32.776C816.345 32.5307 816.233 32.3493 816.009 32.232C815.795 32.104 815.443 31.9707 814.953 31.832L814.345 31.64C813.801 31.48 813.342 31.3093 812.969 31.128C812.595 30.9467 812.281 30.7013 812.025 30.392C811.769 30.072 811.641 29.6667 811.641 29.176C811.641 28.4293 811.934 27.8373 812.521 27.4C813.107 26.952 813.881 26.728 814.841 26.728C815.491 26.728 816.062 26.8347 816.553 27.048C817.043 27.2507 817.422 27.5387 817.689 27.912C817.955 28.2747 818.089 28.6907 818.089 29.16C818.089 29.2133 818.067 29.2613 818.025 29.304C817.993 29.336 817.95 29.352 817.897 29.352H816.537C816.483 29.352 816.435 29.336 816.393 29.304C816.361 29.2613 816.345 29.2133 816.345 29.16C816.345 28.8827 816.206 28.6533 815.929 28.472C815.662 28.28 815.294 28.184 814.825 28.184C814.409 28.184 814.067 28.264 813.801 28.424C813.545 28.5733 813.417 28.7867 813.417 29.064C813.417 29.32 813.539 29.5173 813.785 29.656C814.041 29.784 814.462 29.928 815.049 30.088L815.401 30.184C815.966 30.3547 816.441 30.5307 816.825 30.712C817.209 30.8827 817.534 31.128 817.801 31.448C818.067 31.7573 818.201 32.1627 818.201 32.664C818.201 33.4213 817.902 34.0187 817.305 34.456C816.707 34.8827 815.913 35.096 814.921 35.096ZM822.655 35.096C821.983 35.096 821.391 35 820.879 34.808C820.378 34.6053 819.988 34.3333 819.711 33.992C819.434 33.64 819.295 33.2507 819.295 32.824V32.68C819.295 32.6267 819.311 32.584 819.343 32.552C819.386 32.5093 819.434 32.488 819.487 32.488H820.895C820.948 32.488 820.991 32.5093 821.023 32.552C821.066 32.584 821.087 32.6267 821.087 32.68V32.712C821.087 32.9787 821.231 33.2133 821.519 33.416C821.818 33.608 822.191 33.704 822.639 33.704C823.066 33.704 823.412 33.6187 823.679 33.448C823.946 33.2667 824.079 33.0427 824.079 32.776C824.079 32.5307 823.967 32.3493 823.743 32.232C823.53 32.104 823.178 31.9707 822.687 31.832L822.079 31.64C821.535 31.48 821.076 31.3093 820.703 31.128C820.33 30.9467 820.015 30.7013 819.759 30.392C819.503 30.072 819.375 29.6667 819.375 29.176C819.375 28.4293 819.668 27.8373 820.255 27.4C820.842 26.952 821.615 26.728 822.575 26.728C823.226 26.728 823.796 26.8347 824.287 27.048C824.778 27.2507 825.156 27.5387 825.423 27.912C825.69 28.2747 825.823 28.6907 825.823 29.16C825.823 29.2133 825.802 29.2613 825.759 29.304C825.727 29.336 825.684 29.352 825.631 29.352H824.271C824.218 29.352 824.17 29.336 824.127 29.304C824.095 29.2613 824.079 29.2133 824.079 29.16C824.079 28.8827 823.94 28.6533 823.663 28.472C823.396 28.28 823.028 28.184 822.559 28.184C822.143 28.184 821.802 28.264 821.535 28.424C821.279 28.5733 821.151 28.7867 821.151 29.064C821.151 29.32 821.274 29.5173 821.519 29.656C821.775 29.784 822.196 29.928 822.783 30.088L823.135 30.184C823.7 30.3547 824.175 30.5307 824.559 30.712C824.943 30.8827 825.268 31.128 825.535 31.448C825.802 31.7573 825.935 32.1627 825.935 32.664C825.935 33.4213 825.636 34.0187 825.039 34.456C824.442 34.8827 823.647 35.096 822.655 35.096ZM827.698 35C827.644 35 827.596 34.984 827.554 34.952C827.522 34.9093 827.506 34.8613 827.506 34.808V23.992C827.506 23.9387 827.522 23.896 827.554 23.864C827.596 23.8213 827.644 23.8 827.698 23.8H829.17C829.223 23.8 829.266 23.8213 829.298 23.864C829.34 23.896 829.362 23.9387 829.362 23.992V34.808C829.362 34.8613 829.34 34.9093 829.298 34.952C829.266 34.984 829.223 35 829.17 35H827.698ZM831.174 38.184C831.142 38.184 831.115 38.1627 831.094 38.12C831.072 38.088 831.062 38.0453 831.062 37.992V36.84C831.062 36.7867 831.078 36.7387 831.11 36.696C831.152 36.664 831.2 36.648 831.254 36.648H831.27C831.707 36.6373 832.048 36.5893 832.294 36.504C832.539 36.4293 832.742 36.28 832.902 36.056C833.062 35.832 833.206 35.496 833.334 35.048C833.344 35.0267 833.344 34.9947 833.334 34.952L830.694 27.032C830.683 27.0107 830.678 26.984 830.678 26.952C830.678 26.856 830.731 26.808 830.838 26.808H832.406C832.523 26.808 832.598 26.8613 832.63 26.968L834.23 32.6C834.24 32.632 834.256 32.648 834.278 32.648C834.299 32.648 834.315 32.632 834.326 32.6L835.926 26.968C835.958 26.8613 836.032 26.808 836.15 26.808H837.67C837.734 26.808 837.776 26.8293 837.798 26.872C837.83 26.904 837.835 26.9573 837.814 27.032L834.998 35.448C834.731 36.2053 834.47 36.7707 834.214 37.144C833.958 37.5173 833.606 37.784 833.158 37.944C832.72 38.104 832.096 38.184 831.286 38.184H831.174ZM846.701 28.136C846.701 28.1893 846.68 28.2373 846.637 28.28C846.605 28.312 846.562 28.328 846.509 28.328H844.877C844.824 28.328 844.797 28.3547 844.797 28.408V32.264C844.797 32.6693 844.882 32.9627 845.053 33.144C845.234 33.3253 845.517 33.416 845.901 33.416H846.381C846.434 33.416 846.477 33.4373 846.509 33.48C846.552 33.512 846.573 33.5547 846.573 33.608V34.808C846.573 34.9253 846.509 34.9947 846.381 35.016L845.549 35.032C844.706 35.032 844.077 34.888 843.661 34.6C843.245 34.312 843.032 33.768 843.021 32.968V28.408C843.021 28.3547 842.994 28.328 842.941 28.328H842.029C841.976 28.328 841.928 28.312 841.885 28.28C841.853 28.2373 841.837 28.1893 841.837 28.136V27.016C841.837 26.9627 841.853 26.92 841.885 26.888C841.928 26.8453 841.976 26.824 842.029 26.824H842.941C842.994 26.824 843.021 26.7973 843.021 26.744V24.872C843.021 24.8187 843.037 24.776 843.069 24.744C843.112 24.7013 843.16 24.68 843.213 24.68H844.605C844.658 24.68 844.701 24.7013 844.733 24.744C844.776 24.776 844.797 24.8187 844.797 24.872V26.744C844.797 26.7973 844.824 26.824 844.877 26.824H846.509C846.562 26.824 846.605 26.8453 846.637 26.888C846.68 26.92 846.701 26.9627 846.701 27.016V28.136ZM851.665 35.128C850.823 35.128 850.097 34.9147 849.489 34.488C848.892 34.0613 848.471 33.4693 848.225 32.712C848.044 32.136 847.953 31.528 847.953 30.888C847.953 30.2053 848.039 29.5973 848.209 29.064C848.455 28.3173 848.881 27.736 849.489 27.32C850.097 26.904 850.828 26.696 851.681 26.696C852.492 26.696 853.191 26.904 853.777 27.32C854.375 27.736 854.796 28.312 855.041 29.048C855.233 29.56 855.329 30.168 855.329 30.872C855.329 31.544 855.239 32.152 855.057 32.696C854.812 33.4533 854.391 34.0507 853.793 34.488C853.196 34.9147 852.487 35.128 851.665 35.128ZM851.665 33.528C852.06 33.528 852.396 33.416 852.673 33.192C852.961 32.968 853.169 32.6533 853.297 32.248C853.404 31.896 853.457 31.448 853.457 30.904C853.457 30.328 853.404 29.88 853.297 29.56C853.18 29.1547 852.977 28.8453 852.689 28.632C852.401 28.408 852.049 28.296 851.633 28.296C851.239 28.296 850.897 28.408 850.609 28.632C850.321 28.8453 850.113 29.1547 849.985 29.56C849.879 29.9333 849.825 30.3813 849.825 30.904C849.825 31.4267 849.879 31.8747 849.985 32.248C850.103 32.6533 850.305 32.968 850.593 33.192C850.892 33.416 851.249 33.528 851.665 33.528ZM860.127 38.184C860.095 38.184 860.068 38.1627 860.047 38.12C860.026 38.088 860.015 38.0453 860.015 37.992V36.84C860.015 36.7867 860.031 36.7387 860.063 36.696C860.106 36.664 860.154 36.648 860.207 36.648H860.223C860.66 36.6373 861.002 36.5893 861.247 36.504C861.492 36.4293 861.695 36.28 861.855 36.056C862.015 35.832 862.159 35.496 862.287 35.048C862.298 35.0267 862.298 34.9947 862.287 34.952L859.647 27.032C859.636 27.0107 859.631 26.984 859.631 26.952C859.631 26.856 859.684 26.808 859.791 26.808H861.359C861.476 26.808 861.551 26.8613 861.583 26.968L863.183 32.6C863.194 32.632 863.21 32.648 863.231 32.648C863.252 32.648 863.268 32.632 863.279 32.6L864.879 26.968C864.911 26.8613 864.986 26.808 865.103 26.808H866.623C866.687 26.808 866.73 26.8293 866.751 26.872C866.783 26.904 866.788 26.9573 866.767 27.032L863.951 35.448C863.684 36.2053 863.423 36.7707 863.167 37.144C862.911 37.5173 862.559 37.784 862.111 37.944C861.674 38.104 861.05 38.184 860.239 38.184H860.127ZM871.15 35.128C870.307 35.128 869.582 34.9147 868.974 34.488C868.376 34.0613 867.955 33.4693 867.71 32.712C867.528 32.136 867.438 31.528 867.438 30.888C867.438 30.2053 867.523 29.5973 867.694 29.064C867.939 28.3173 868.366 27.736 868.974 27.32C869.582 26.904 870.312 26.696 871.166 26.696C871.976 26.696 872.675 26.904 873.262 27.32C873.859 27.736 874.28 28.312 874.526 29.048C874.718 29.56 874.814 30.168 874.814 30.872C874.814 31.544 874.723 32.152 874.542 32.696C874.296 33.4533 873.875 34.0507 873.278 34.488C872.68 34.9147 871.971 35.128 871.15 35.128ZM871.15 33.528C871.544 33.528 871.88 33.416 872.158 33.192C872.446 32.968 872.654 32.6533 872.782 32.248C872.888 31.896 872.942 31.448 872.942 30.904C872.942 30.328 872.888 29.88 872.782 29.56C872.664 29.1547 872.462 28.8453 872.174 28.632C871.886 28.408 871.534 28.296 871.118 28.296C870.723 28.296 870.382 28.408 870.094 28.632C869.806 28.8453 869.598 29.1547 869.47 29.56C869.363 29.9333 869.31 30.3813 869.31 30.904C869.31 31.4267 869.363 31.8747 869.47 32.248C869.587 32.6533 869.79 32.968 870.078 33.192C870.376 33.416 870.734 33.528 871.15 33.528ZM881.4 27.016C881.4 26.9627 881.416 26.92 881.448 26.888C881.491 26.8453 881.539 26.824 881.592 26.824H883.048C883.102 26.824 883.144 26.8453 883.176 26.888C883.219 26.92 883.24 26.9627 883.24 27.016V34.808C883.24 34.8613 883.219 34.9093 883.176 34.952C883.144 34.984 883.102 35 883.048 35H881.592C881.539 35 881.491 34.984 881.448 34.952C881.416 34.9093 881.4 34.8613 881.4 34.808V34.296C881.4 34.264 881.39 34.2427 881.368 34.232C881.347 34.2213 881.326 34.232 881.304 34.264C880.867 34.8293 880.211 35.112 879.336 35.112C878.526 35.112 877.843 34.8773 877.288 34.408C876.744 33.9387 876.472 33.272 876.472 32.408V27.016C876.472 26.9627 876.488 26.92 876.52 26.888C876.563 26.8453 876.611 26.824 876.664 26.824H878.136C878.19 26.824 878.232 26.8453 878.264 26.888C878.307 26.92 878.328 26.9627 878.328 27.016V31.88C878.328 32.3813 878.456 32.7813 878.712 33.08C878.979 33.3787 879.347 33.528 879.816 33.528C880.296 33.528 880.68 33.3787 880.968 33.08C881.256 32.7813 881.4 32.3813 881.4 31.88V27.016ZM889.032 26.728C889.374 26.728 889.672 26.7973 889.928 26.936C890.014 26.9787 890.046 27.0587 890.024 27.176L889.752 28.616C889.742 28.744 889.667 28.7813 889.528 28.728C889.368 28.6747 889.182 28.648 888.968 28.648C888.83 28.648 888.723 28.6533 888.648 28.664C888.2 28.6853 887.827 28.8453 887.528 29.144C887.23 29.432 887.08 29.8107 887.08 30.28V34.808C887.08 34.8613 887.059 34.9093 887.016 34.952C886.984 34.984 886.942 35 886.888 35H885.416C885.363 35 885.315 34.984 885.272 34.952C885.24 34.9093 885.224 34.8613 885.224 34.808V27.016C885.224 26.9627 885.24 26.92 885.272 26.888C885.315 26.8453 885.363 26.824 885.416 26.824H886.888C886.942 26.824 886.984 26.8453 887.016 26.888C887.059 26.92 887.08 26.9627 887.08 27.016V27.736C887.08 27.7787 887.086 27.8053 887.096 27.816C887.118 27.816 887.139 27.8 887.16 27.768C887.608 27.0747 888.232 26.728 889.032 26.728ZM897.851 35.128C897.03 35.128 896.321 34.92 895.723 34.504C895.126 34.0773 894.71 33.5067 894.475 32.792C894.305 32.312 894.219 31.672 894.219 30.872C894.219 30.104 894.305 29.4747 894.475 28.984C894.699 28.28 895.11 27.7253 895.707 27.32C896.315 26.904 897.03 26.696 897.851 26.696C898.683 26.696 899.409 26.904 900.027 27.32C900.646 27.736 901.057 28.2587 901.259 28.888C901.313 29.0587 901.35 29.2293 901.371 29.4V29.432C901.371 29.5387 901.313 29.6027 901.195 29.624L899.755 29.832H899.723C899.627 29.832 899.563 29.7787 899.531 29.672C899.531 29.6187 899.526 29.576 899.515 29.544C899.494 29.4587 899.473 29.384 899.451 29.32C899.355 29.0213 899.163 28.776 898.875 28.584C898.587 28.392 898.246 28.296 897.851 28.296C897.446 28.296 897.099 28.4027 896.811 28.616C896.534 28.8187 896.347 29.1013 896.251 29.464C896.145 29.8053 896.091 30.28 896.091 30.888C896.091 31.4747 896.139 31.9493 896.235 32.312C896.342 32.6853 896.534 32.984 896.811 33.208C897.089 33.4213 897.435 33.528 897.851 33.528C898.257 33.528 898.603 33.4267 898.891 33.224C899.19 33.0107 899.382 32.728 899.467 32.376C899.478 32.3547 899.483 32.328 899.483 32.296C899.494 32.2853 899.499 32.2693 899.499 32.248C899.531 32.12 899.606 32.0667 899.723 32.088L901.163 32.312C901.217 32.3227 901.259 32.3493 901.291 32.392C901.334 32.424 901.35 32.472 901.339 32.536C901.307 32.7067 901.281 32.8293 901.259 32.904C901.057 33.5867 900.646 34.1307 900.027 34.536C899.409 34.9307 898.683 35.128 897.851 35.128ZM907.775 27.016C907.775 26.9627 907.791 26.92 907.823 26.888C907.866 26.8453 907.914 26.824 907.967 26.824H909.423C909.477 26.824 909.519 26.8453 909.551 26.888C909.594 26.92 909.615 26.9627 909.615 27.016V34.808C909.615 34.8613 909.594 34.9093 909.551 34.952C909.519 34.984 909.477 35 909.423 35H907.967C907.914 35 907.866 34.984 907.823 34.952C907.791 34.9093 907.775 34.8613 907.775 34.808V34.296C907.775 34.264 907.765 34.2427 907.743 34.232C907.722 34.2213 907.701 34.232 907.679 34.264C907.242 34.8293 906.586 35.112 905.711 35.112C904.901 35.112 904.218 34.8773 903.663 34.408C903.119 33.9387 902.847 33.272 902.847 32.408V27.016C902.847 26.9627 902.863 26.92 902.895 26.888C902.938 26.8453 902.986 26.824 903.039 26.824H904.511C904.565 26.824 904.607 26.8453 904.639 26.888C904.682 26.92 904.703 26.9627 904.703 27.016V31.88C904.703 32.3813 904.831 32.7813 905.087 33.08C905.354 33.3787 905.722 33.528 906.191 33.528C906.671 33.528 907.055 33.3787 907.343 33.08C907.631 32.7813 907.775 32.3813 907.775 31.88V27.016ZM915.407 26.728C915.749 26.728 916.047 26.7973 916.303 26.936C916.389 26.9787 916.421 27.0587 916.399 27.176L916.127 28.616C916.117 28.744 916.042 28.7813 915.903 28.728C915.743 28.6747 915.557 28.648 915.343 28.648C915.205 28.648 915.098 28.6533 915.023 28.664C914.575 28.6853 914.202 28.8453 913.903 29.144C913.605 29.432 913.455 29.8107 913.455 30.28V34.808C913.455 34.8613 913.434 34.9093 913.391 34.952C913.359 34.984 913.317 35 913.263 35H911.791C911.738 35 911.69 34.984 911.647 34.952C911.615 34.9093 911.599 34.8613 911.599 34.808V27.016C911.599 26.9627 911.615 26.92 911.647 26.888C911.69 26.8453 911.738 26.824 911.791 26.824H913.263C913.317 26.824 913.359 26.8453 913.391 26.888C913.434 26.92 913.455 26.9627 913.455 27.016V27.736C913.455 27.7787 913.461 27.8053 913.471 27.816C913.493 27.816 913.514 27.8 913.535 27.768C913.983 27.0747 914.607 26.728 915.407 26.728ZM921.423 26.728C921.764 26.728 922.063 26.7973 922.319 26.936C922.404 26.9787 922.436 27.0587 922.415 27.176L922.143 28.616C922.132 28.744 922.058 28.7813 921.919 28.728C921.759 28.6747 921.572 28.648 921.359 28.648C921.22 28.648 921.114 28.6533 921.039 28.664C920.591 28.6853 920.218 28.8453 919.919 29.144C919.62 29.432 919.471 29.8107 919.471 30.28V34.808C919.471 34.8613 919.45 34.9093 919.407 34.952C919.375 34.984 919.332 35 919.279 35H917.807C917.754 35 917.706 34.984 917.663 34.952C917.631 34.9093 917.615 34.8613 917.615 34.808V27.016C917.615 26.9627 917.631 26.92 917.663 26.888C917.706 26.8453 917.754 26.824 917.807 26.824H919.279C919.332 26.824 919.375 26.8453 919.407 26.888C919.45 26.92 919.471 26.9627 919.471 27.016V27.736C919.471 27.7787 919.476 27.8053 919.487 27.816C919.508 27.816 919.53 27.8 919.551 27.768C919.999 27.0747 920.623 26.728 921.423 26.728ZM930.37 29.992C930.413 30.2587 930.434 30.5573 930.434 30.888L930.418 31.384C930.418 31.512 930.354 31.576 930.226 31.576H925.218C925.165 31.576 925.138 31.6027 925.138 31.656C925.17 32.008 925.218 32.248 925.282 32.376C925.538 33.144 926.162 33.5333 927.154 33.544C927.88 33.544 928.456 33.2453 928.882 32.648C928.925 32.584 928.978 32.552 929.042 32.552C929.085 32.552 929.122 32.568 929.154 32.6L930.146 33.416C930.242 33.4907 930.258 33.576 930.194 33.672C929.864 34.1413 929.421 34.504 928.866 34.76C928.322 35.016 927.714 35.144 927.042 35.144C926.21 35.144 925.501 34.9573 924.914 34.584C924.338 34.2107 923.917 33.688 923.65 33.016C923.405 32.44 923.282 31.64 923.282 30.616C923.282 29.9973 923.346 29.496 923.474 29.112C923.688 28.3653 924.088 27.7787 924.674 27.352C925.272 26.9147 925.986 26.696 926.818 26.696C928.92 26.696 930.104 27.7947 930.37 29.992ZM926.818 28.296C926.424 28.296 926.093 28.3973 925.826 28.6C925.57 28.792 925.389 29.064 925.282 29.416C925.218 29.5973 925.176 29.832 925.154 30.12C925.133 30.1733 925.154 30.2 925.218 30.2H928.466C928.52 30.2 928.546 30.1733 928.546 30.12C928.525 29.8533 928.493 29.6507 928.45 29.512C928.354 29.128 928.162 28.8293 927.874 28.616C927.597 28.4027 927.245 28.296 926.818 28.296ZM936.051 26.696C936.915 26.696 937.603 26.952 938.115 27.464C938.637 27.976 938.899 28.6747 938.899 29.56V34.808C938.899 34.8613 938.877 34.9093 938.835 34.952C938.803 34.984 938.76 35 938.707 35H937.235C937.181 35 937.133 34.984 937.091 34.952C937.059 34.9093 937.043 34.8613 937.043 34.808V29.944C937.043 29.4533 936.904 29.0587 936.627 28.76C936.349 28.4507 935.981 28.296 935.523 28.296C935.064 28.296 934.691 28.4453 934.403 28.744C934.125 29.0427 933.987 29.4373 933.987 29.928V34.808C933.987 34.8613 933.965 34.9093 933.923 34.952C933.891 34.984 933.848 35 933.795 35H932.323C932.269 35 932.221 34.984 932.179 34.952C932.147 34.9093 932.131 34.8613 932.131 34.808V27.016C932.131 26.9627 932.147 26.92 932.179 26.888C932.221 26.8453 932.269 26.824 932.323 26.824H933.795C933.848 26.824 933.891 26.8453 933.923 26.888C933.965 26.92 933.987 26.9627 933.987 27.016V27.528C933.987 27.56 933.997 27.5813 934.019 27.592C934.04 27.6027 934.056 27.592 934.067 27.56C934.504 26.984 935.165 26.696 936.051 26.696ZM945.17 28.136C945.17 28.1893 945.148 28.2373 945.106 28.28C945.074 28.312 945.031 28.328 944.978 28.328H943.346C943.292 28.328 943.266 28.3547 943.266 28.408V32.264C943.266 32.6693 943.351 32.9627 943.522 33.144C943.703 33.3253 943.986 33.416 944.37 33.416H944.85C944.903 33.416 944.946 33.4373 944.978 33.48C945.02 33.512 945.042 33.5547 945.042 33.608V34.808C945.042 34.9253 944.978 34.9947 944.85 35.016L944.018 35.032C943.175 35.032 942.546 34.888 942.13 34.6C941.714 34.312 941.5 33.768 941.49 32.968V28.408C941.49 28.3547 941.463 28.328 941.41 28.328H940.498C940.444 28.328 940.396 28.312 940.354 28.28C940.322 28.2373 940.306 28.1893 940.306 28.136V27.016C940.306 26.9627 940.322 26.92 940.354 26.888C940.396 26.8453 940.444 26.824 940.498 26.824H941.41C941.463 26.824 941.49 26.7973 941.49 26.744V24.872C941.49 24.8187 941.506 24.776 941.538 24.744C941.58 24.7013 941.628 24.68 941.682 24.68H943.074C943.127 24.68 943.17 24.7013 943.202 24.744C943.244 24.776 943.266 24.8187 943.266 24.872V26.744C943.266 26.7973 943.292 26.824 943.346 26.824H944.978C945.031 26.824 945.074 26.8453 945.106 26.888C945.148 26.92 945.17 26.9627 945.17 27.016V28.136ZM953.061 35.096C952.389 35.096 951.797 35 951.285 34.808C950.784 34.6053 950.395 34.3333 950.117 33.992C949.84 33.64 949.701 33.2507 949.701 32.824V32.68C949.701 32.6267 949.717 32.584 949.749 32.552C949.792 32.5093 949.84 32.488 949.893 32.488H951.301C951.355 32.488 951.397 32.5093 951.429 32.552C951.472 32.584 951.493 32.6267 951.493 32.68V32.712C951.493 32.9787 951.637 33.2133 951.925 33.416C952.224 33.608 952.597 33.704 953.045 33.704C953.472 33.704 953.819 33.6187 954.085 33.448C954.352 33.2667 954.485 33.0427 954.485 32.776C954.485 32.5307 954.373 32.3493 954.149 32.232C953.936 32.104 953.584 31.9707 953.093 31.832L952.485 31.64C951.941 31.48 951.483 31.3093 951.109 31.128C950.736 30.9467 950.421 30.7013 950.165 30.392C949.909 30.072 949.781 29.6667 949.781 29.176C949.781 28.4293 950.075 27.8373 950.661 27.4C951.248 26.952 952.021 26.728 952.981 26.728C953.632 26.728 954.203 26.8347 954.693 27.048C955.184 27.2507 955.563 27.5387 955.829 27.912C956.096 28.2747 956.229 28.6907 956.229 29.16C956.229 29.2133 956.208 29.2613 956.165 29.304C956.133 29.336 956.091 29.352 956.037 29.352H954.677C954.624 29.352 954.576 29.336 954.533 29.304C954.501 29.2613 954.485 29.2133 954.485 29.16C954.485 28.8827 954.347 28.6533 954.069 28.472C953.803 28.28 953.435 28.184 952.965 28.184C952.549 28.184 952.208 28.264 951.941 28.424C951.685 28.5733 951.557 28.7867 951.557 29.064C951.557 29.32 951.68 29.5173 951.925 29.656C952.181 29.784 952.603 29.928 953.189 30.088L953.541 30.184C954.107 30.3547 954.581 30.5307 954.965 30.712C955.349 30.8827 955.675 31.128 955.941 31.448C956.208 31.7573 956.341 32.1627 956.341 32.664C956.341 33.4213 956.043 34.0187 955.445 34.456C954.848 34.8827 954.053 35.096 953.061 35.096ZM964.808 29.992C964.851 30.2587 964.872 30.5573 964.872 30.888L964.856 31.384C964.856 31.512 964.792 31.576 964.664 31.576H959.656C959.603 31.576 959.576 31.6027 959.576 31.656C959.608 32.008 959.656 32.248 959.72 32.376C959.976 33.144 960.6 33.5333 961.592 33.544C962.317 33.544 962.893 33.2453 963.32 32.648C963.363 32.584 963.416 32.552 963.48 32.552C963.523 32.552 963.56 32.568 963.592 32.6L964.584 33.416C964.68 33.4907 964.696 33.576 964.632 33.672C964.301 34.1413 963.859 34.504 963.304 34.76C962.76 35.016 962.152 35.144 961.48 35.144C960.648 35.144 959.939 34.9573 959.352 34.584C958.776 34.2107 958.355 33.688 958.088 33.016C957.843 32.44 957.72 31.64 957.72 30.616C957.72 29.9973 957.784 29.496 957.912 29.112C958.125 28.3653 958.525 27.7787 959.112 27.352C959.709 26.9147 960.424 26.696 961.256 26.696C963.357 26.696 964.541 27.7947 964.808 29.992ZM961.256 28.296C960.861 28.296 960.531 28.3973 960.264 28.6C960.008 28.792 959.827 29.064 959.72 29.416C959.656 29.5973 959.613 29.832 959.592 30.12C959.571 30.1733 959.592 30.2 959.656 30.2H962.904C962.957 30.2 962.984 30.1733 962.984 30.12C962.963 29.8533 962.931 29.6507 962.888 29.512C962.792 29.128 962.6 28.8293 962.312 28.616C962.035 28.4027 961.683 28.296 961.256 28.296ZM970.748 28.136C970.748 28.1893 970.727 28.2373 970.684 28.28C970.652 28.312 970.609 28.328 970.556 28.328H968.924C968.871 28.328 968.844 28.3547 968.844 28.408V32.264C968.844 32.6693 968.929 32.9627 969.1 33.144C969.281 33.3253 969.564 33.416 969.948 33.416H970.428C970.481 33.416 970.524 33.4373 970.556 33.48C970.599 33.512 970.62 33.5547 970.62 33.608V34.808C970.62 34.9253 970.556 34.9947 970.428 35.016L969.596 35.032C968.753 35.032 968.124 34.888 967.708 34.6C967.292 34.312 967.079 33.768 967.068 32.968V28.408C967.068 28.3547 967.041 28.328 966.988 28.328H966.076C966.023 28.328 965.975 28.312 965.932 28.28C965.9 28.2373 965.884 28.1893 965.884 28.136V27.016C965.884 26.9627 965.9 26.92 965.932 26.888C965.975 26.8453 966.023 26.824 966.076 26.824H966.988C967.041 26.824 967.068 26.7973 967.068 26.744V24.872C967.068 24.8187 967.084 24.776 967.116 24.744C967.159 24.7013 967.207 24.68 967.26 24.68H968.652C968.705 24.68 968.748 24.7013 968.78 24.744C968.823 24.776 968.844 24.8187 968.844 24.872V26.744C968.844 26.7973 968.871 26.824 968.924 26.824H970.556C970.609 26.824 970.652 26.8453 970.684 26.888C970.727 26.92 970.748 26.9627 970.748 27.016V28.136ZM977.228 27.016C977.228 26.9627 977.244 26.92 977.276 26.888C977.319 26.8453 977.367 26.824 977.42 26.824H978.876C978.93 26.824 978.972 26.8453 979.004 26.888C979.047 26.92 979.068 26.9627 979.068 27.016V34.808C979.068 34.8613 979.047 34.9093 979.004 34.952C978.972 34.984 978.93 35 978.876 35H977.42C977.367 35 977.319 34.984 977.276 34.952C977.244 34.9093 977.228 34.8613 977.228 34.808V34.296C977.228 34.264 977.218 34.2427 977.196 34.232C977.175 34.2213 977.154 34.232 977.132 34.264C976.695 34.8293 976.039 35.112 975.164 35.112C974.354 35.112 973.671 34.8773 973.116 34.408C972.572 33.9387 972.3 33.272 972.3 32.408V27.016C972.3 26.9627 972.316 26.92 972.348 26.888C972.391 26.8453 972.439 26.824 972.492 26.824H973.964C974.018 26.824 974.06 26.8453 974.092 26.888C974.135 26.92 974.156 26.9627 974.156 27.016V31.88C974.156 32.3813 974.284 32.7813 974.54 33.08C974.807 33.3787 975.175 33.528 975.644 33.528C976.124 33.528 976.508 33.3787 976.796 33.08C977.084 32.7813 977.228 32.3813 977.228 31.88V27.016ZM987.981 28.936C988.173 29.48 988.269 30.1467 988.269 30.936C988.269 31.6933 988.178 32.344 987.997 32.888C987.762 33.592 987.383 34.1413 986.861 34.536C986.349 34.9307 985.698 35.128 984.909 35.128C984.151 35.128 983.543 34.856 983.085 34.312C983.063 34.2907 983.042 34.2853 983.021 34.296C982.999 34.3067 982.989 34.328 982.989 34.36V37.832C982.989 37.8853 982.967 37.928 982.925 37.96C982.893 38.0027 982.85 38.024 982.797 38.024H981.325C981.271 38.024 981.223 38.0027 981.181 37.96C981.149 37.928 981.133 37.8853 981.133 37.832V27.016C981.133 26.9627 981.149 26.92 981.181 26.888C981.223 26.8453 981.271 26.824 981.325 26.824H982.797C982.85 26.824 982.893 26.8453 982.925 26.888C982.967 26.92 982.989 26.9627 982.989 27.016V27.496C982.989 27.528 982.999 27.5493 983.021 27.56C983.042 27.5707 983.063 27.56 983.085 27.528C983.554 26.9733 984.167 26.696 984.925 26.696C985.682 26.696 986.322 26.8933 986.845 27.288C987.367 27.6827 987.746 28.232 987.981 28.936ZM985.901 32.856C986.221 32.3653 986.381 31.7147 986.381 30.904C986.381 30.1253 986.253 29.512 985.997 29.064C985.698 28.5413 985.245 28.28 984.637 28.28C984.082 28.28 983.666 28.536 983.389 29.048C983.143 29.464 983.021 30.0827 983.021 30.904C983.021 31.7467 983.154 32.3867 983.421 32.824C983.698 33.2933 984.098 33.528 984.621 33.528C985.186 33.528 985.613 33.304 985.901 32.856ZM991.001 35.032C990.67 35.032 990.398 34.9253 990.185 34.712C989.972 34.4987 989.865 34.2267 989.865 33.896C989.865 33.5653 989.972 33.2933 990.185 33.08C990.398 32.8667 990.67 32.76 991.001 32.76C991.332 32.76 991.598 32.8667 991.801 33.08C992.014 33.2933 992.121 33.5653 992.121 33.896C992.121 34.2267 992.014 34.4987 991.801 34.712C991.588 34.9253 991.321 35.032 991.001 35.032Z" fill="white"/>
</svg>
