<svg width="73" height="72" viewBox="0 0 73 72" fill="none" xmlns="http://www.w3.org/2000/svg">
<g id="Heromatics Icon/house-tree">
<g id="Vector">
<path fill-rule="evenodd" clip-rule="evenodd" d="M26.2964 15.8256L37.6607 23.1188L31.9628 31.158C31.5514 31.7384 31.9664 32.5412 32.6778 32.5412C33.4532 32.5412 33.8466 33.474 33.3055 34.0293L26.4409 41.0731C25.2602 42.2847 26.1186 44.32 27.8105 44.32C29.6145 44.32 30.4151 46.5888 29.0107 47.7211L21.9885 53.3825C20.4932 54.5881 21.3457 57.0035 23.2664 57.0035H34.4814L34.4139 57.004H11.8778C9.37378 57.004 7.34389 54.9741 7.34389 52.4701V31.1214C7.34389 30.1187 6.5311 29.306 5.52847 29.306C3.68839 29.306 3.01584 26.8836 4.59255 25.935L21.5102 15.7564C22.9888 14.8668 24.8442 14.8936 26.2964 15.8256ZM14.6158 31.8787C13.4913 31.8787 12.5798 32.7902 12.5798 33.9147V38.1989C12.5798 39.3234 13.4913 40.2349 14.6158 40.2349H18.2014C19.3259 40.2349 20.2374 39.3234 20.2374 38.1989V33.9147C20.2374 32.7902 19.3259 31.8787 18.2014 31.8787H14.6158Z" fill="#0073FA"/>
<path fill-rule="evenodd" clip-rule="evenodd" d="M46.5224 15.9174C47.3261 14.6888 49.1264 14.6888 49.9301 15.9174L59.8652 31.1056C60.2369 31.6739 59.8292 32.4278 59.1501 32.4278C58.4104 32.4278 58.0201 33.3038 58.5148 33.8538L65.0536 41.1236C66.1418 42.3336 65.2831 44.2607 63.6558 44.2607C61.9192 44.2607 61.1112 46.414 62.419 47.5565L69.1481 53.4347C70.5645 54.672 69.6894 57.004 67.8086 57.004H28.6438C26.7631 57.004 25.888 54.672 27.3044 53.4347L34.0334 47.5565C35.3413 46.414 34.5333 44.2607 32.7966 44.2607C31.1693 44.2607 30.3107 42.3335 31.3989 41.1236L37.9377 33.8538C38.4324 33.3038 38.0421 32.4278 37.3024 32.4278C36.6233 32.4278 36.2155 31.6739 36.5873 31.1056L46.5224 15.9174Z" fill="#0073FA"/>
</g>
</g>
</svg>
