<svg width="63" height="62" viewBox="0 0 63 62" fill="none" xmlns="http://www.w3.org/2000/svg">
<g id="buildings-fill">
<path id="Subtract" d="M58.9043 1.9375C58.9043 1.26601 58.5566 0.642392 57.9854 0.289366C57.4142 -0.0636592 56.7009 -0.095752 56.1003 0.204549L25.1003 15.7045C24.4439 16.0327 24.0293 16.7036 24.0293 17.4375V29.6035L2.10411 36.9119C1.31294 37.1757 0.779297 37.916 0.779297 38.75V60.0625C0.779297 61.1326 1.64675 62 2.7168 62H37.5918C38.6618 62 39.5293 61.1326 39.5293 60.0625V54.25H43.4043V60.0625C43.4043 61.1326 44.2717 62 45.3418 62H56.9668C58.0369 62 58.9043 61.1326 58.9043 60.0625V1.9375ZM8.5293 42.625H12.4043V46.5H8.5293V42.625ZM16.2793 42.625H20.1543V46.5H16.2793V42.625ZM12.4043 50.375V54.25H8.5293V50.375H12.4043ZM16.2793 50.375H20.1543V54.25H16.2793V50.375ZM51.1543 11.625V15.5H47.2793V11.625H51.1543ZM31.7793 19.375H35.6543V23.25H31.7793V19.375ZM35.6543 27.125V31H31.7793V27.125H35.6543ZM31.7793 34.875H35.6543V38.75H31.7793V34.875ZM39.5293 34.875H43.4043V38.75H39.5293V34.875ZM35.6543 42.625V46.5H31.7793V42.625H35.6543ZM39.5293 42.625H43.4043V46.5H39.5293V42.625ZM51.1543 34.875V38.75H47.2793V34.875H51.1543ZM47.2793 42.625H51.1543V46.5H47.2793V42.625ZM39.5293 27.125H43.4043V31H39.5293V27.125ZM51.1543 27.125V31H47.2793V27.125H51.1543ZM43.4043 19.375V23.25H39.5293V19.375H43.4043ZM47.2793 19.375H51.1543V23.25H47.2793V19.375Z" fill="#0073FA"/>
</g>
</svg>
