<svg width="63" height="62" viewBox="0 0 63 62" fill="none" xmlns="http://www.w3.org/2000/svg">
<g id="box-fill">
<path id="Union" fill-rule="evenodd" clip-rule="evenodd" d="M60.9524 11.5201C62.0558 11.9614 62.7793 13.0301 62.7793 14.2185V47.7817C62.7793 48.9701 62.0558 50.0387 60.9524 50.4801L32.8587 61.7176C32.1658 61.9947 31.3928 61.9947 30.6999 61.7176L2.60619 50.4801C1.50281 50.0387 0.779297 48.9701 0.779297 47.7817V14.2185C0.779297 13.0301 1.50281 11.9614 2.60619 11.5201L29.6206 0.714288L29.6361 0.708124L30.6999 0.282572C31.3928 0.00541936 32.1658 0.00541832 32.8587 0.282571L33.9228 0.708219L33.938 0.714288L60.9524 11.5201ZM55.6249 13.5626L31.7793 23.1008L7.93368 13.5626L4.6543 14.8743V16.4243L29.8418 26.4993V57.2008L31.7793 57.9758L33.7168 57.2008V26.4993L58.9043 16.4243V14.8743L55.6249 13.5626Z" fill="#0073FA"/>
</g>
</svg>
