<svg width="13" height="13" viewBox="0 0 13 13" fill="none" xmlns="http://www.w3.org/2000/svg">
<path d="M4.26884 4.09268C3.79011 3.61395 3.79011 2.83778 4.26884 2.35905C4.74757 1.88032 5.52374 1.88032 6.00247 2.35905L9.2898 5.64637C9.76853 6.12509 9.76853 6.90127 9.2898 7.38C8.81107 7.85873 8.03489 7.85873 7.55616 7.38L4.26884 4.09268Z" fill="white"/>
<path d="M4.26884 8.90732C3.79011 9.38605 3.79011 10.1622 4.26884 10.641C4.74757 11.1197 5.52374 11.1197 6.00247 10.641L9.2898 7.35363C9.76853 6.8749 9.76853 6.09873 9.2898 5.62C8.81107 5.14127 8.03489 5.14127 7.55616 5.62L4.26884 8.90732Z" fill="white"/>
</svg>
